<svg width="40" height="40" viewBox="0 0 40 40" fill="none" xmlns="http://www.w3.org/2000/svg">
<circle cx="20" cy="20" r="20" fill="white"/>
<path d="M25.5481 9.00462L22.6699 9C19.4362 9 17.3465 11.144 17.3465 14.4623V16.9808H14.4526C14.2025 16.9808 14 17.1836 14 17.4336V21.0827C14 21.3327 14.2027 21.5352 14.4526 21.5352H17.3465V30.7429C17.3465 30.993 17.549 31.1955 17.7991 31.1955H21.5749C21.825 31.1955 22.0275 30.9927 22.0275 30.7429V21.5352H25.4112C25.6613 21.5352 25.8638 21.3327 25.8638 21.0827L25.8652 17.4336C25.8652 17.3136 25.8174 17.1986 25.7326 17.1136C25.6479 17.0286 25.5324 16.9808 25.4123 16.9808H22.0275V14.8459C22.0275 13.8197 22.272 13.2988 23.6087 13.2988L25.5477 13.2981C25.7975 13.2981 26 13.0954 26 12.8455V9.4572C26 9.20759 25.7977 9.00508 25.5481 9.00462Z" fill="#ED5E42"/>
</svg>
