<svg width="40" height="40" viewBox="0 0 40 40" fill="none" xmlns="http://www.w3.org/2000/svg">
<circle cx="20" cy="20" r="20" fill="white"/>
<path d="M29 13.8393C28.3007 14.1514 27.5503 14.3631 26.762 14.4576C27.567 13.972 28.1832 13.2019 28.4752 12.287C27.7201 12.7367 26.8866 13.0632 25.9985 13.2401C25.2874 12.476 24.2758 12 23.1538 12C21.0013 12 19.256 13.758 19.256 15.9249C19.256 16.2323 19.2904 16.5324 19.3569 16.8195C16.118 16.6556 13.246 15.0926 11.3238 12.7175C10.9878 13.2963 10.7966 13.9708 10.7966 14.6908C10.7966 16.0529 11.4853 17.2548 12.5301 17.9579C11.8913 17.9364 11.2905 17.7594 10.7646 17.4652V17.5143C10.7646 19.4157 12.1086 21.0027 13.8907 21.3638C13.5642 21.4523 13.2199 21.5014 12.8637 21.5014C12.612 21.5014 12.3686 21.4763 12.13 21.4284C12.6262 22.9891 14.0652 24.124 15.7702 24.1551C14.4368 25.2075 12.7557 25.8329 10.9296 25.8329C10.615 25.8329 10.3051 25.8138 10 25.7791C11.7251 26.8949 13.7732 27.5455 15.9744 27.5455C23.1444 27.5455 27.0636 21.5636 27.0636 16.3758L27.0505 15.8675C27.8163 15.3174 28.4788 14.6262 29 13.8393Z" fill="#ED5E42"/>
</svg>
