<svg width="40" height="40" viewBox="0 0 40 40" fill="none" xmlns="http://www.w3.org/2000/svg">
<circle cx="20" cy="20" r="20" fill="white"/>
<path d="M29.8992 24.329C29.8762 24.2793 29.8548 24.2381 29.8349 24.2051C29.5052 23.6105 28.8753 22.8806 27.9454 22.0153L27.9257 21.9955L27.9159 21.9858L27.906 21.9759H27.896C27.474 21.5729 27.2067 21.302 27.0948 21.1633C26.89 20.8991 26.8441 20.6316 26.9561 20.3606C27.0351 20.1559 27.3321 19.7235 27.8464 19.0628C28.1169 18.7127 28.3311 18.4321 28.4893 18.2207C29.6304 16.7014 30.125 15.7306 29.9733 15.3078L29.9143 15.209C29.8747 15.1495 29.7725 15.0951 29.6078 15.0455C29.4428 14.996 29.2318 14.9878 28.9745 15.0208L26.1256 15.0405C26.0794 15.0241 26.0135 15.0257 25.9276 15.0455C25.8419 15.0654 25.799 15.0753 25.799 15.0753L25.7494 15.1001L25.7101 15.1299C25.6771 15.1497 25.6408 15.1843 25.6012 15.2339C25.5618 15.2833 25.5288 15.3412 25.5025 15.4072C25.1923 16.2065 24.8397 16.9496 24.4439 17.6365C24.1999 18.0461 23.9757 18.401 23.7711 18.7016C23.5667 19.002 23.3952 19.2234 23.2568 19.3653C23.1182 19.5074 22.9931 19.6211 22.8808 19.7071C22.7686 19.7931 22.683 19.8294 22.6237 19.8161C22.5643 19.8028 22.5084 19.7897 22.4554 19.7765C22.3631 19.717 22.2889 19.6361 22.2329 19.5337C22.1767 19.4314 22.1389 19.3025 22.1191 19.1473C22.0994 18.992 22.0878 18.8583 22.0845 18.746C22.0814 18.6338 22.0828 18.4751 22.0895 18.2704C22.0964 18.0655 22.0994 17.9269 22.0994 17.8543C22.0994 17.6032 22.1043 17.3308 22.1141 17.0368C22.1241 16.7429 22.1322 16.51 22.1389 16.3385C22.1457 16.1667 22.1488 15.985 22.1488 15.7935C22.1488 15.6019 22.1371 15.4517 22.1141 15.3426C22.0914 15.2337 22.0565 15.128 22.0105 15.0256C21.9643 14.9232 21.8966 14.844 21.8077 14.7878C21.7187 14.7316 21.608 14.6871 21.4763 14.654C21.1268 14.5747 20.6816 14.5319 20.1407 14.5252C18.9141 14.512 18.126 14.5914 17.7764 14.7631C17.638 14.8357 17.5126 14.9348 17.4006 15.0602C17.2818 15.2056 17.2653 15.2849 17.351 15.298C17.7467 15.3573 18.0269 15.4994 18.1918 15.7239L18.2512 15.8429C18.2975 15.9288 18.3436 16.0808 18.3898 16.2987C18.4359 16.5167 18.4657 16.7577 18.4788 17.0218C18.5117 17.5041 18.5117 17.9169 18.4788 18.2603C18.4458 18.6039 18.4146 18.8713 18.3848 19.0629C18.355 19.2544 18.3106 19.4097 18.2512 19.5285C18.1918 19.6474 18.1523 19.7201 18.1325 19.7465C18.1127 19.7728 18.0962 19.7895 18.0831 19.796C17.9974 19.8289 17.9082 19.8456 17.8159 19.8456C17.7235 19.8456 17.6115 19.7993 17.4796 19.7068C17.3478 19.6143 17.2109 19.4872 17.0691 19.3254C16.9273 19.1635 16.7674 18.9373 16.5892 18.6467C16.4112 18.3561 16.2266 18.0126 16.0353 17.6163L15.8771 17.3289C15.7781 17.144 15.643 16.8748 15.4715 16.5215C15.3 16.168 15.1483 15.8261 15.0165 15.4959C14.9638 15.3572 14.8846 15.2516 14.7791 15.1789L14.7296 15.1491C14.6966 15.1227 14.6438 15.0947 14.5713 15.0649C14.4987 15.0351 14.423 15.0137 14.3438 15.0005L11.6332 15.0202C11.3563 15.0202 11.1683 15.0831 11.0694 15.2086L11.0298 15.268C11.01 15.3011 11 15.3539 11 15.4266C11 15.4992 11.0198 15.5884 11.0594 15.694C11.4551 16.6254 11.8854 17.5237 12.3503 18.389C12.8152 19.2543 13.2192 19.9513 13.5621 20.4794C13.905 21.0079 14.2545 21.5066 14.6107 21.9755C14.9668 22.4445 15.2026 22.745 15.3179 22.8771C15.4334 23.0094 15.5241 23.1083 15.5901 23.1743L15.8374 23.4121C15.9957 23.5706 16.2281 23.7605 16.5348 23.9817C16.8415 24.2031 17.1811 24.421 17.5538 24.6359C17.9264 24.8504 18.36 25.0254 18.8547 25.1608C19.3493 25.2963 19.8307 25.3507 20.299 25.3244H21.4366C21.6674 25.3045 21.8422 25.2318 21.961 25.1064L22.0003 25.0567C22.0268 25.0173 22.0516 24.9561 22.0745 24.8737C22.0976 24.7911 22.1091 24.7001 22.1091 24.6012C22.1023 24.3172 22.1239 24.0613 22.1733 23.8334C22.2226 23.6057 22.2788 23.4339 22.3416 23.3182C22.4045 23.2027 22.4753 23.1052 22.5542 23.0261C22.6333 22.9469 22.6896 22.8989 22.7227 22.8824C22.7555 22.8658 22.7818 22.8545 22.8016 22.8477C22.9598 22.7949 23.1461 22.8461 23.3607 23.0014C23.575 23.1566 23.7761 23.3483 23.9642 23.5761C24.1521 23.8041 24.378 24.0599 24.6417 24.3438C24.9056 24.6279 25.1364 24.8391 25.3342 24.978L25.532 25.0969C25.664 25.1762 25.8355 25.2489 26.0466 25.3149C26.2573 25.3809 26.4419 25.3975 26.6004 25.3644L29.1328 25.3249C29.3833 25.3249 29.5782 25.2833 29.7164 25.2009C29.855 25.1184 29.9372 25.0274 29.9638 24.9285C29.9903 24.8294 29.9917 24.7171 29.9688 24.5915C29.9454 24.4661 29.9222 24.3785 29.8992 24.329Z" fill="#ED5E42"/>
</svg>
