<svg width="62" height="62" viewBox="0 0 62 62" fill="none" xmlns="http://www.w3.org/2000/svg">
<path d="M23.5742 30.4141L24.8398 17.4062H37.2324V21.6602H28.918L28.4609 27.1445C29.4219 26.5 30.4121 26.1777 31.4316 26.1777C33.541 26.1777 35.1641 26.9277 36.3008 28.4277C37.4492 29.9277 38.0234 32.0488 38.0234 34.791C38.0234 37.3574 37.3438 39.4258 35.9844 40.9961C34.625 42.5664 32.8086 43.3516 30.5352 43.3516C29.1875 43.3516 27.9395 43.0352 26.791 42.4023C25.6426 41.7578 24.7344 40.8672 24.0664 39.7305C23.4102 38.5938 23.0762 37.3047 23.0645 35.8633H27.9863C28.0684 36.9297 28.332 37.7559 28.7773 38.3418C29.2227 38.9277 29.7969 39.2207 30.5 39.2207C31.3203 39.2207 31.9531 38.8281 32.3984 38.043C32.8438 37.2461 33.0664 36.0625 33.0664 34.4922C33.0664 33.0156 32.7969 31.9023 32.2578 31.1523C31.7305 30.4023 30.9863 30.0273 30.0254 30.0273C29.0879 30.0273 28.3613 30.3496 27.8457 30.9941L27.5293 31.4336L23.5742 30.4141Z" fill="#ED5E42"/>
<circle cx="31" cy="31" r="30" stroke="#ED5E42" stroke-width="2"/>
<circle cx="31" cy="31" r="27" stroke="#ED5E42"/>
</svg>
