<svg width="62" height="62" viewBox="0 0 62 62" fill="none" xmlns="http://www.w3.org/2000/svg">
<path d="M34.9297 18.1426V22.3613H34.6484C32.7852 22.373 31.3027 22.9355 30.2012 24.0488C29.1113 25.1504 28.4492 26.6973 28.2148 28.6895C29.2812 27.4707 30.6172 26.8613 32.2227 26.8613C34.0742 26.8613 35.5508 27.6523 36.6523 29.2344C37.7656 30.8164 38.3223 32.9258 38.3223 35.5625C38.3223 37.2383 38.0059 38.75 37.373 40.0977C36.7402 41.4453 35.8496 42.4941 34.7012 43.2441C33.5645 43.9824 32.2754 44.3516 30.834 44.3516C28.5137 44.3516 26.6504 43.4199 25.2441 41.5566C23.8496 39.6934 23.1523 37.1855 23.1523 34.0332V32.1875C23.1523 29.3633 23.5918 26.8906 24.4707 24.7695C25.3613 22.6484 26.6387 21.0195 28.3027 19.8828C29.9785 18.7344 31.9297 18.1543 34.1562 18.1426H34.9297ZM30.6582 30.9746C30.0254 30.9746 29.4922 31.1738 29.0586 31.5723C28.6367 31.9707 28.3203 32.4629 28.1094 33.0488V34.8418C28.1094 36.6465 28.3496 37.9941 28.8301 38.8848C29.3105 39.7754 29.9434 40.2207 30.7285 40.2207C31.5254 40.2207 32.1641 39.793 32.6445 38.9375C33.125 38.0703 33.3652 36.9629 33.3652 35.6152C33.3652 34.2441 33.1133 33.1309 32.6094 32.2754C32.1172 31.4082 31.4668 30.9746 30.6582 30.9746Z" fill="#ED5E42"/>
<circle cx="31" cy="31" r="30" stroke="#ED5E42" stroke-width="2"/>
<circle cx="31" cy="31" r="27" stroke="#ED5E42"/>
</svg>
