<svg width="30" height="31" viewBox="0 0 30 31" fill="none" xmlns="http://www.w3.org/2000/svg">
<path fill-rule="evenodd" clip-rule="evenodd" d="M30 3.78577C30 5.85413 24.9609 7.53577 18.75 7.53577C12.5391 7.53577 7.5 5.85413 7.5 3.78577C7.5 1.71741 12.5391 0.0357666 18.75 0.0357666C24.9609 0.0357666 30 1.71741 30 3.78577ZM0 26.2858V23.7838C2.41992 25.4889 6.84375 26.2858 11.25 26.2858C15.6562 26.2858 20.0801 25.4889 22.5 23.7838V26.2858C22.5 28.3541 17.4609 30.0358 11.25 30.0358C5.03906 30.0358 0 28.3541 0 26.2858ZM0 17.6373V20.6608C0 22.7291 5.03906 24.4108 11.25 24.4108C17.4609 24.4108 22.5 22.7291 22.5 20.6608V17.6373C20.0801 19.6295 15.6504 20.6608 11.25 20.6608C6.84961 20.6608 2.41992 19.6295 0 17.6373ZM30 15.0358C30 16.4244 27.7324 17.6315 24.375 18.2819V14.5553C26.6426 14.151 28.6406 13.4948 30 12.5338V15.0358ZM11.25 9.41077C5.03906 9.41077 0 11.5084 0 14.0983C0 16.6881 5.03906 18.7858 11.25 18.7858C17.4609 18.7858 22.5 16.6881 22.5 14.0983C22.5 11.5084 17.4609 9.41077 11.25 9.41077ZM30 9.41077C30 10.8346 27.6152 12.0768 24.0996 12.7096C23.584 11.3209 22.3125 10.1959 20.584 9.35803C24.3457 9.17053 27.9199 8.37952 30 6.90881V9.41077Z" fill="#ED5E42"/>
</svg>
