<svg width="30" height="31" viewBox="0 0 30 31" fill="none" xmlns="http://www.w3.org/2000/svg">
<path fill-rule="evenodd" clip-rule="evenodd" d="M27.1875 8.51761C27.9123 9.06487 28.4039 9.44749 28.9225 9.85413C29.6027 10.3873 30 11.2035 30 12.0672V12.6912L24.375 16.7547V5.9313H5.625V16.7547L0 12.6912V12.0672C0.000117038 11.2031 0.397444 10.3871 1.07754 9.85413C1.59609 9.44749 2.0877 9.06429 2.8125 8.51761V5.9313C2.8125 4.37799 4.07168 3.11882 5.625 3.11882H10.1689C10.2835 3.03591 10.393 2.9564 10.5059 2.87436C10.5686 2.82884 10.6323 2.78253 10.6986 2.73444C10.8639 2.61387 11.0565 2.46486 11.269 2.30046C12.3236 1.48456 13.8686 0.289265 15 0.306333C16.1321 0.289254 17.6787 1.48601 18.7331 2.30195C18.9448 2.46577 19.1367 2.61423 19.3014 2.73444C19.3675 2.78246 19.4312 2.82869 19.4938 2.87414C19.6068 2.95626 19.7164 3.03584 19.8311 3.11882H24.375C25.9283 3.11882 27.1875 4.37799 27.1875 5.9313V8.51761ZM20.625 12.025C20.625 12.543 20.2055 12.9625 19.6875 12.9625H10.3125C9.79453 12.9625 9.375 12.543 9.375 12.025V11.0875C9.375 10.5696 9.79453 10.15 10.3125 10.15H19.6875C20.2055 10.15 20.625 10.5696 20.625 11.0875V12.025ZM10.3125 18.5875C9.79453 18.5875 9.375 18.1679 9.375 17.65V16.7125C9.375 16.1945 9.79453 15.775 10.3125 15.775H19.6875C20.2055 15.775 20.625 16.1945 20.625 16.7125V17.65C20.625 18.1679 20.2055 18.5875 19.6875 18.5875H10.3125ZM15 24.7474C14.0379 24.7474 13.0758 24.4509 12.2543 23.8574L0 15.0051V27.4937C0 29.047 1.25918 30.3062 2.8125 30.3062H27.1875C28.7408 30.3062 30 29.047 30 27.4937V15.0051L17.7457 23.8574C16.9242 24.4503 15.9621 24.7474 15 24.7474Z" fill="#ED5E42"/>
</svg>
