<svg width="121" height="24" viewBox="0 0 121 24" fill="none" xmlns="http://www.w3.org/2000/svg">
<path fill-rule="evenodd" clip-rule="evenodd" d="M36.3444 0L32.1397 2.46125V3.806H37.6014V0H36.3444ZM113.469 5.11912C112.215 5.11918 110.705 5.24937 109.84 5.32396C109.493 5.3539 109.249 5.37488 109.168 5.37488V21.3043H112.653V15.8675C113.162 15.9528 113.677 15.9954 114.191 15.9954C117.393 15.9954 119.843 13.8531 119.843 10.5903C119.843 6.87933 117.143 5.11932 113.469 5.11912ZM113.783 13.0212C113.398 13.03 113.015 12.9671 112.653 12.8356V8.31875C112.834 8.2885 113.439 8.2885 113.783 8.2885C115.322 8.2885 116.358 9.05575 116.358 10.6535C116.358 12.1908 115.291 13.0212 113.783 13.0212ZM105.28 15.7149H101.92V18.106H106.249V21.3043H98.4966V5.31025H106.002V8.50575H101.92V12.6349H105.28V15.7149ZM89.2378 13.1464V5.31025H85.8169V21.3043H89.2378V16.1287H89.8656L93.8829 21.3043H95.3342V17.5945C95.0503 17.2001 94.7296 16.7624 94.4065 16.3214L94.406 16.3208L94.4059 16.3207L94.4052 16.3197C93.9424 15.6881 93.4749 15.0501 93.1046 14.5241C93.515 13.3114 94.0717 11.5486 94.4218 10.3331L95.8977 5.31025H92.3127L89.9901 13.145L89.2378 13.1464ZM45.2311 13.3073C45.2311 15.8689 47.2719 17.0514 48.5275 17.0514V17.05V9.56588C47.2691 9.56588 45.2311 10.747 45.2311 13.3073ZM35.9368 21.3056V16.7956V16.7943L35.3801 16.7929L31.6746 21.3029H29.8226V5.3075H33.2695V7.744C33.2695 9.43273 33.1719 12.3199 33.1059 14.2706L33.1059 14.2711L33.1058 14.2719L33.1058 14.2723L33.0876 14.8129H33.6525L35.9368 11.781V5.31163H39.3837V21.3056H35.9368ZM3.22954 11.4221C3.22954 14.6204 2.81372 17.787 1 18.458V21.8817C5.23749 21.4349 6.55607 17.6591 6.55607 12.0285V8.1345H8.81707V21.3139H12.264V5.30888H3.22954V11.4221ZM55.1792 13.3169C55.1792 10.7552 53.1384 9.57275 51.8828 9.57275V17.0514C53.1384 17.0514 55.1792 15.8771 55.1792 13.3169ZM51.8828 19.8426C55.6497 19.8426 58.6644 17.1545 58.6644 13.3169C58.6644 9.47788 55.6511 6.78975 51.8828 6.78975V4.60763H48.5275V6.78012C44.7619 6.78012 41.7472 9.46963 41.7472 13.3073C41.7472 17.1449 44.7592 19.833 48.5275 19.833V21.7525H51.8828V19.8426ZM61.9513 5.31025C62.733 6.72814 63.4891 8.16021 64.2191 9.60575V9.60437L64.8784 9.59475C65.4396 8.45172 66.2521 6.94945 66.9116 5.73017L67.1394 5.30888H68.6453V9.69375L66.6675 13.0212L68.923 16.8919V21.307H67.4157L64.8756 16.445H64.2164L61.6777 21.3056H60.1704V16.8919L62.4204 13.0199L60.4439 9.69238V5.31025H61.9513ZM79.7288 5.31025H74.3587L70.1527 21.3043H73.668L74.3587 18.4869H79.7288L80.4195 21.3029H83.9348L79.7288 5.31025ZM75.1124 15.5485H78.9724L77.3419 8.79725H76.7127L75.1124 15.5485ZM23.7263 5.31025H18.3576L14.1516 21.3043H17.6668L18.359 18.4869H23.7263L24.417 21.3029H27.9323L23.7263 5.31025ZM19.1099 15.5485H22.9712L21.3394 8.79725H20.7116L19.1099 15.5485Z" fill="white"/>
</svg>
