<svg width="34" height="34" viewBox="0 0 34 34" fill="none" xmlns="http://www.w3.org/2000/svg">
<path fill-rule="evenodd" clip-rule="evenodd" d="M13.9474 22.7778V11.2222C13.9474 9.63333 15.2121 8.33333 16.7895 8.33333H29.5789V6.88889C29.5789 5.3 28.3 4 26.7368 4H6.84211C5.26474 4 4 5.3 4 6.88889V27.1111C4 28.7 5.26474 30 6.84211 30H26.7368C28.3 30 29.5789 28.7 29.5789 27.1111V25.6667H16.7895C15.2121 25.6667 13.9474 24.3667 13.9474 22.7778ZM18.2105 11.2222C17.4289 11.2222 16.7895 11.8722 16.7895 12.6667V21.3333C16.7895 22.1278 17.4289 22.7778 18.2105 22.7778H31V11.2222H18.2105ZM20.3421 17C20.3421 18.1989 21.2942 19.1667 22.4737 19.1667C23.6532 19.1667 24.6053 18.1989 24.6053 17C24.6053 15.8011 23.6532 14.8333 22.4737 14.8333C21.2942 14.8333 20.3421 15.8011 20.3421 17Z" fill="#ED5E42"/>
</svg>
