<svg width="35" height="37" viewBox="0 0 35 37" fill="none" xmlns="http://www.w3.org/2000/svg">
<path fill-rule="evenodd" clip-rule="evenodd" d="M19.1819 4C19.9438 4 20.6769 4.3045 21.2231 4.8555L28.1519 11.859C28.6981 12.3955 29 13.135 29 13.9035V30.1C29 31.695 27.7062 33 26.125 33H8.86063C7.27938 33 6 31.695 6 30.1V6.9C6 5.305 7.29375 4 8.875 4H19.1819ZM13.1875 27.2H21.8125C22.6031 27.2 23.25 26.5475 23.25 25.75C23.25 24.9525 22.6031 24.3 21.8125 24.3H13.1875C12.3969 24.3 11.75 24.9525 11.75 25.75C11.75 26.5475 12.3969 27.2 13.1875 27.2ZM21.8125 21.4H13.1875C12.3969 21.4 11.75 20.7475 11.75 19.95C11.75 19.1525 12.3969 18.5 13.1875 18.5H21.8125C22.6031 18.5 23.25 19.1525 23.25 19.95C23.25 20.7475 22.6031 21.4 21.8125 21.4ZM18.9375 6.175V12.7C18.9375 13.4975 19.5844 14.15 20.375 14.15H26.8438L18.9375 6.175Z" fill="#ED5E42"/>
</svg>
