<svg width="0" height="0" class="hidden">
  <symbol viewBox="0 0 40 40" fill="none" xmlns="http://www.w3.org/2000/svg" id="facebook">
    <circle cx="20" cy="20" r="20" fill="#fff"></circle>
    <path d="M25.548 9.005L22.67 9c-3.234 0-5.324 2.106-5.324 5.365v2.473h-2.893a.45.45 0 0 0-.453.445v3.584c0 .245.203.444.453.444h2.893v9.044c0 .245.203.444.453.444h3.776c.25 0 .453-.199.453-.444V21.31h3.383c.25 0 .453-.198.453-.444l.001-3.584a.441.441 0 0 0-.132-.314.457.457 0 0 0-.32-.13h-3.386v-2.097c0-1.008.245-1.52 1.582-1.52h1.939c.25 0 .452-.2.452-.445V9.449a.449.449 0 0 0-.452-.444z"
      fill="#FF9E27"></path>
  </symbol>
  <symbol viewBox="0 0 40 40" fill="none" xmlns="http://www.w3.org/2000/svg" id="twitter">
    <circle cx="20" cy="20" r="20" fill="#fff"></circle>
    <path d="M29 13.875a7.63 7.63 0 0 1-2.238.63 4.001 4.001 0 0 0 1.713-2.212 7.736 7.736 0 0 1-2.477.971A3.84 3.84 0 0 0 23.154 12c-2.153 0-3.898 1.792-3.898 4.001 0 .313.034.62.1.912-3.238-.167-6.11-1.76-8.032-4.182a4.054 4.054 0 0 0-.527 2.012 4.03 4.03 0 0 0 1.733 3.33 3.822 3.822 0 0 1-1.765-.502v.05c0 1.939 1.344 3.556 3.126 3.924-.327.09-.671.14-1.027.14-.252 0-.495-.025-.734-.074.496 1.591 1.935 2.748 3.64 2.78A7.692 7.692 0 0 1 10 26.046a10.81 10.81 0 0 0 5.974 1.8c7.17 0 11.09-6.097 11.09-11.385l-.014-.518A7.9 7.9 0 0 0 29 13.875z"
      fill="#FF9E27"></path>
  </symbol>
  <symbol viewBox="0 0 40 40" fill="none" xmlns="http://www.w3.org/2000/svg" id="vk">
    <circle cx="20" cy="20" r="20" fill="#fff"></circle>
    <path d="M29.9 24.538a1.346 1.346 0 0 0-.065-.126c-.33-.607-.96-1.352-1.89-2.234l-.02-.02-.01-.01-.009-.01h-.01c-.422-.412-.69-.688-.801-.83-.205-.27-.25-.542-.139-.819.08-.209.376-.65.89-1.324.27-.357.485-.643.643-.859 1.141-1.55 1.636-2.54 1.484-2.972l-.059-.1c-.04-.061-.142-.117-.306-.167-.165-.05-.376-.06-.634-.026l-2.848.02a.362.362 0 0 0-.198.006l-.129.03-.05.025-.039.03a.443.443 0 0 0-.109.107.696.696 0 0 0-.098.177c-.31.815-.663 1.573-1.06 2.274-.243.418-.467.78-.672 1.087a5.21 5.21 0 0 1-.514.677 3.622 3.622 0 0 1-.376.349c-.112.087-.198.124-.257.11a7.129 7.129 0 0 1-.169-.04.667.667 0 0 1-.222-.247 1.127 1.127 0 0 1-.114-.395 4.422 4.422 0 0 1-.035-.409 8.707 8.707 0 0 1 .006-.485c.006-.21.01-.35.01-.425 0-.256.004-.534.014-.834l.025-.712c.007-.175.01-.36.01-.556 0-.196-.012-.349-.035-.46a1.596 1.596 0 0 0-.104-.324.541.541 0 0 0-.202-.242 1.13 1.13 0 0 0-.332-.137c-.35-.08-.794-.124-1.335-.131-1.227-.014-2.015.067-2.365.242a1.338 1.338 0 0 0-.375.304c-.12.148-.136.229-.05.242.396.06.676.206.84.435l.06.121c.046.088.093.243.139.465.046.223.076.469.089.738.033.492.033.913 0 1.264-.033.35-.064.623-.094.818a1.664 1.664 0 0 1-.253.698.173.173 0 0 1-.049.05.726.726 0 0 1-.267.051c-.092 0-.204-.047-.336-.142a2.391 2.391 0 0 1-.41-.389 5.213 5.213 0 0 1-.48-.692 12.185 12.185 0 0 1-.555-1.052l-.158-.293a25.22 25.22 0 0 1-.405-.823 15.49 15.49 0 0 1-.455-1.047.665.665 0 0 0-.238-.323l-.05-.03a.677.677 0 0 0-.158-.087 1.032 1.032 0 0 0-.227-.065l-2.71.02c-.278 0-.466.064-.565.192l-.04.06a.333.333 0 0 0-.029.163c0 .074.02.165.06.272.395.95.825 1.867 1.29 2.75.465.883.87 1.594 1.212 2.132.343.54.693 1.049 1.049 1.527s.592.785.707.92c.115.135.206.236.272.303l.247.243c.159.161.391.355.698.58.306.227.646.449 1.019.668a5.46 5.46 0 0 0 1.3.536 4.44 4.44 0 0 0 1.445.167h1.138c.23-.02.405-.095.524-.223l.04-.05a.679.679 0 0 0 .073-.187 1.05 1.05 0 0 0 .035-.278c-.007-.29.015-.551.064-.784a2.11 2.11 0 0 1 .169-.525 1.295 1.295 0 0 1 .38-.445.629.629 0 0 1 .08-.035c.158-.054.344-.002.559.157.214.158.415.354.603.586.188.233.414.494.678.783.264.29.494.505.692.647l.198.122c.132.08.303.155.515.222.21.067.395.084.553.05l2.533-.04c.25 0 .445-.042.583-.126.139-.085.221-.177.248-.278a.798.798 0 0 0 .005-.344 1.286 1.286 0 0 0-.07-.268z"
      fill="#FF9E27"></path>
  </symbol>
</svg>