<svg width="30" height="26" viewBox="0 0 30 26" fill="none" xmlns="http://www.w3.org/2000/svg">
<path fill-rule="evenodd" clip-rule="evenodd" d="M26.1578 1.5896L29.3189 6.64819C30.9555 9.26538 29.504 12.8982 26.4452 13.3083C26.226 13.3376 26.0069 13.3523 25.7779 13.3523C24.3411 13.3523 23.0649 12.7175 22.1833 11.7361C21.3066 12.7175 20.0305 13.3523 18.5888 13.3523C17.1519 13.3523 15.8709 12.7175 14.9942 11.7361C14.1174 12.7175 12.8413 13.3523 11.3996 13.3523C9.96273 13.3523 8.68174 12.7175 7.80501 11.7361C6.92828 12.7175 5.65215 13.3523 4.21042 13.3523C3.98637 13.3523 3.76232 13.3376 3.54314 13.3083C0.494071 12.8933 -0.95253 9.2605 0.679158 6.64819L3.84025 1.5896C4.12275 1.1355 4.62443 0.857178 5.16021 0.857178H24.8379C25.3737 0.857178 25.8753 1.1355 26.1578 1.5896ZM24.3508 14.7341C24.8184 14.8464 25.3006 14.9197 25.7877 14.9197C26.0848 14.9197 26.377 14.9001 26.6741 14.8611C26.9469 14.8269 27.2099 14.7634 27.4729 14.6853V24.2947C27.4729 25.1589 26.7764 25.8572 25.9143 25.8572H4.09353C3.23141 25.8572 2.5349 25.1589 2.5349 24.2947V14.6853C2.79305 14.7585 3.06094 14.822 3.3337 14.8611C3.62107 14.9001 3.91818 14.9197 4.21042 14.9197C4.69749 14.9197 5.17969 14.8416 5.64728 14.7341V19.6072H24.3508V14.7341Z" fill="#ED5E42"/>
</svg>
