<svg width="40" height="40" viewBox="0 0 40 40" fill="none" xmlns="http://www.w3.org/2000/svg">
<circle cx="20" cy="20" r="20" fill="white"/>
<path d="M29 13.8749C28.3007 14.1931 27.5503 14.4089 26.762 14.5052C27.567 14.0103 28.1832 13.2252 28.4752 12.2926C27.7201 12.7509 26.8866 13.0838 25.9985 13.2642C25.2874 12.4852 24.2758 12 23.1538 12C21.0013 12 19.256 13.7921 19.256 16.001C19.256 16.3143 19.2904 16.6203 19.3569 16.9129C16.118 16.7459 13.246 15.1526 11.3238 12.7314C10.9878 13.3215 10.7966 14.009 10.7966 14.7429C10.7966 16.1315 11.4853 17.3567 12.5301 18.0735C11.8913 18.0515 11.2905 17.8711 10.7646 17.5712V17.6212C10.7646 19.5595 12.1086 21.1772 13.8907 21.5454C13.5642 21.6356 13.2199 21.6856 12.8637 21.6856C12.612 21.6856 12.3686 21.66 12.13 21.6112C12.6262 23.2022 14.0652 24.359 15.7702 24.3908C14.4368 25.4636 12.7557 26.1012 10.9296 26.1012C10.615 26.1012 10.3051 26.0816 10 26.0463C11.7251 27.1837 13.7732 27.8469 15.9744 27.8469C23.1444 27.8469 27.0636 21.749 27.0636 16.4606L27.0505 15.9425C27.8163 15.3817 28.4788 14.6771 29 13.8749Z" fill="#FF9E27"/>
</svg>
