<svg width="40" height="40" viewBox="0 0 40 40" fill="none" xmlns="http://www.w3.org/2000/svg">
<circle cx="20" cy="20" r="20" fill="white"/>
<path d="M29.8992 24.5381C29.8762 24.4874 29.8548 24.4454 29.8349 24.4117C29.5052 23.8051 28.8753 23.0604 27.9454 22.1776L27.9257 22.1574L27.9159 22.1475L27.906 22.1373H27.896C27.474 21.7262 27.2067 21.4498 27.0948 21.3083C26.89 21.0387 26.8441 20.7659 26.9561 20.4894C27.0351 20.2805 27.3321 19.8393 27.8464 19.1653C28.1169 18.8081 28.3311 18.5219 28.4893 18.3062C29.6304 16.7561 30.125 15.7656 29.9733 15.3343L29.9143 15.2335C29.8747 15.1728 29.7725 15.1173 29.6078 15.0667C29.4428 15.0162 29.2318 15.0078 28.9745 15.0415L26.1256 15.0616C26.0794 15.0449 26.0135 15.0464 25.9276 15.0667C25.8419 15.0869 25.799 15.0971 25.799 15.0971L25.7494 15.1224L25.7101 15.1528C25.6771 15.1729 25.6408 15.2083 25.6012 15.2589C25.5618 15.3092 25.5288 15.3684 25.5025 15.4357C25.1923 16.2511 24.8397 17.0093 24.4439 17.7101C24.1998 18.128 23.9757 18.4901 23.7711 18.7968C23.5667 19.1033 23.3952 19.3292 23.2568 19.4739C23.1182 19.6188 22.9931 19.7349 22.8808 19.8226C22.7686 19.9104 22.683 19.9474 22.6237 19.9339C22.5643 19.9203 22.5084 19.9069 22.4554 19.8934C22.3631 19.8327 22.2889 19.7502 22.2329 19.6457C22.1767 19.5413 22.1389 19.4098 22.1191 19.2515C22.0994 19.093 22.0878 18.9567 22.0845 18.8421C22.0814 18.7276 22.0828 18.5657 22.0895 18.3568C22.0964 18.1478 22.0994 18.0064 22.0994 17.9323C22.0994 17.6762 22.1043 17.3982 22.1141 17.0983C22.1241 16.7984 22.1322 16.5608 22.1389 16.3858C22.1457 16.2106 22.1488 16.0252 22.1488 15.8298C22.1488 15.6343 22.1371 15.4811 22.1141 15.3698C22.0914 15.2587 22.0565 15.1509 22.0105 15.0463C21.9643 14.9419 21.8966 14.8611 21.8077 14.8037C21.7187 14.7464 21.608 14.701 21.4763 14.6672C21.1268 14.5864 20.6816 14.5426 20.1407 14.5358C18.9141 14.5224 18.126 14.6033 17.7764 14.7785C17.638 14.8526 17.5126 14.9537 17.4006 15.0817C17.2818 15.23 17.2653 15.3109 17.351 15.3242C17.7467 15.3848 18.0269 15.5297 18.1918 15.7588L18.2512 15.8802C18.2975 15.9678 18.3436 16.1229 18.3898 16.3453C18.4359 16.5676 18.4657 16.8136 18.4788 17.083C18.5117 17.575 18.5117 17.9962 18.4788 18.3466C18.4458 18.6971 18.4146 18.9699 18.3848 19.1654C18.355 19.3608 18.3106 19.5192 18.2512 19.6404C18.1918 19.7617 18.1523 19.8359 18.1325 19.8628C18.1127 19.8897 18.0962 19.9066 18.0831 19.9133C17.9974 19.9469 17.9082 19.964 17.8159 19.964C17.7235 19.964 17.6115 19.9167 17.4796 19.8223C17.3478 19.728 17.2109 19.5983 17.0691 19.4332C16.9273 19.268 16.7674 19.0372 16.5892 18.7407C16.4112 18.4442 16.2266 18.0938 16.0353 17.6895L15.8771 17.3963C15.7781 17.2077 15.643 16.933 15.4715 16.5725C15.3 16.2119 15.1483 15.8631 15.0165 15.5262C14.9638 15.3846 14.8846 15.2769 14.7791 15.2028L14.7296 15.1724C14.6966 15.1455 14.6438 15.1169 14.5713 15.0864C14.4987 15.056 14.423 15.0342 14.3438 15.0208L11.6332 15.0409C11.3563 15.0409 11.1683 15.105 11.0694 15.2331L11.0298 15.2937C11.01 15.3274 11 15.3813 11 15.4555C11 15.5296 11.0198 15.6206 11.0594 15.7283C11.4551 16.6786 11.8854 17.5951 12.3503 18.4778C12.8152 19.3606 13.2192 20.0717 13.5621 20.6105C13.905 21.1497 14.2545 21.6586 14.6107 22.1369C14.9668 22.6154 15.2026 22.9221 15.3179 23.0568C15.4334 23.1917 15.5241 23.2926 15.5901 23.36L15.8374 23.6026C15.9957 23.7643 16.2281 23.9581 16.5348 24.1838C16.8415 24.4096 17.1811 24.632 17.5538 24.8512C17.9264 25.07 18.36 25.2486 18.8547 25.3867C19.3493 25.525 19.8307 25.5804 20.299 25.5537H21.4366C21.6674 25.5333 21.8422 25.4592 21.961 25.3312L22.0003 25.2806C22.0268 25.2403 22.0516 25.1779 22.0745 25.0938C22.0976 25.0095 22.1091 24.9167 22.1091 24.8158C22.1023 24.5261 22.1239 24.265 22.1733 24.0325C22.2226 23.8001 22.2788 23.6249 22.3416 23.5069C22.4045 23.389 22.4753 23.2895 22.5542 23.2088C22.6333 23.128 22.6896 23.079 22.7227 23.0622C22.7555 23.0452 22.7818 23.0337 22.8016 23.0268C22.9598 22.9729 23.1461 23.0251 23.3607 23.1836C23.575 23.342 23.7761 23.5375 23.9642 23.7699C24.1521 24.0025 24.378 24.2635 24.6417 24.5532C24.9056 24.8431 25.1364 25.0585 25.3342 25.2002L25.532 25.3215C25.664 25.4025 25.8355 25.4766 26.0466 25.544C26.2573 25.6113 26.4419 25.6282 26.6004 25.5945L29.1328 25.5541C29.3833 25.5541 29.5782 25.5118 29.7164 25.4277C29.855 25.3434 29.9372 25.2506 29.9638 25.1497C29.9903 25.0487 29.9917 24.934 29.9688 24.8059C29.9454 24.678 29.9222 24.5886 29.8992 24.5381Z" fill="#FF9E27"/>
</svg>
