<svg width="492" height="309" viewBox="0 0 492 309" fill="none" xmlns="http://www.w3.org/2000/svg">
<g opacity="0.87314">
<mask id="mask0" mask-type="alpha" maskUnits="userSpaceOnUse" x="35" y="183" width="430" height="126">
<path fill-rule="evenodd" clip-rule="evenodd" d="M35.5461 183.379H464.261V308.374H35.5461V183.379Z" fill="white"/>
</mask>
<g mask="url(#mask0)">
<path d="M169.545 183.379C106.922 183.379 35.5461 211.963 35.5461 233.689C35.5461 255.415 86.3123 273.028 148.934 273.028C180.376 273.028 208.828 268.587 229.366 261.417C256.812 281.477 306.028 308.374 376.296 308.374C441.22 308.374 464.261 290.837 464.261 264.279C464.261 237.721 229.487 183.379 169.545 183.379" fill="#350909"/>
</g>
</g>
<path d="M255.102 61.7854C230.331 8.29879 188.041 1.01514 150.124 1.01514C112.209 1.01514 80.9407 16.5079 52.5717 39.1303C24.2038 61.7526 8.53965 96.0271 8.53965 96.0271L8.55278 96.0413C3.58703 105.744 0.545654 117.673 0.545654 132.18C0.545654 206.165 64.9845 245.941 105.603 245.941C160.039 245.941 218.387 204.21 244.398 161.81C257.482 140.485 277.749 110.687 255.102 61.7854" fill="#DD0E1D"/>
<path d="M72.1733 74.614C114.02 74.614 163.688 117.173 163.688 173.172C163.688 210.403 137.997 232.995 103.353 232.995C68.7085 232.995 13.7494 199.07 13.7494 135.97C13.7494 90.6247 48.409 74.614 72.1733 74.614" fill="#EAEAEA"/>
<path d="M54.6167 96.672L53.887 152.307L70.48 155.22C70.48 155.22 71.4832 148.391 81.1467 149.666C90.8101 150.941 97.4661 160.956 97.4661 171.063C97.4661 181.17 94.0736 187.344 85.4133 186.524C76.3374 185.666 71.4832 175.98 70.6627 170.882C66.1947 170.426 52.793 168.514 52.793 168.514C52.793 168.514 57.0782 196.923 85.2492 201.111C113.42 205.301 116.665 185.56 116.665 176.545C116.665 147.954 97.5055 135.046 84.3379 134.278C71.8475 133.549 67.8981 138.026 67.8981 138.026C68.4451 133.838 69.2952 115.43 69.2952 115.43L108.588 119.8L107.13 102.591L54.6167 96.672Z" fill="#DD0E1D"/>
<mask id="mask1" mask-type="alpha" maskUnits="userSpaceOnUse" x="0" y="1" width="266" height="245">
<path fill-rule="evenodd" clip-rule="evenodd" d="M52.5716 39.1302C24.2037 61.7525 8.53953 96.027 8.53953 96.027V96.027L8.55266 96.0412C3.58691 105.745 0.545532 117.674 0.545532 132.18V132.18C0.545532 206.165 64.9833 245.939 105.603 245.939V245.939C160.039 245.939 218.387 204.21 244.399 161.81V161.81C257.481 140.486 277.749 110.687 255.102 61.7853V61.7853C230.331 8.29868 188.041 1.01503 150.124 1.01503V1.01503C112.209 1.01503 80.9406 16.5067 52.5716 39.1302" fill="white"/>
</mask>
<g mask="url(#mask1)">
<path d="M254.983 67.3992L257.52 61.0454C237.706 18.2602 206.949 2.14571 171.112 0.847633C231.689 10.7832 249.168 55.7329 254.983 67.3992" fill="#EABD63"/>
</g>
<mask id="mask2" mask-type="alpha" maskUnits="userSpaceOnUse" x="0" y="1" width="266" height="245">
<path fill-rule="evenodd" clip-rule="evenodd" d="M52.5716 39.1302C24.2037 61.7525 8.53953 96.027 8.53953 96.027V96.027L8.55266 96.0412C3.58691 105.745 0.545532 117.674 0.545532 132.18V132.18C0.545532 206.165 64.9833 245.939 105.603 245.939V245.939C160.039 245.939 218.387 204.21 244.399 161.81V161.81C257.481 140.486 277.749 110.687 255.102 61.7853V61.7853C230.331 8.29868 188.041 1.01503 150.124 1.01503V1.01503C112.209 1.01503 80.9406 16.5067 52.5716 39.1302" fill="white"/>
</mask>
<g mask="url(#mask2)">
<path d="M148.324 70.4034C110.591 38.5864 47.1563 37.2369 18.7041 76.283C15.8695 80.1718 13.6738 84.2201 11.5613 88.9021C33.3224 52.0992 86.3014 41.7168 134.077 76.094C189.088 115.678 214.732 218.452 129.49 243.922C140.029 242.952 142.308 242.274 151.515 237.78C199.731 214.244 218.234 129.352 148.324 70.4034" fill="#EABD63"/>
</g>
<mask id="mask3" mask-type="alpha" maskUnits="userSpaceOnUse" x="0" y="1" width="266" height="245">
<path fill-rule="evenodd" clip-rule="evenodd" d="M52.5716 39.1302C24.2037 61.7525 8.53953 96.027 8.53953 96.027V96.027L8.55266 96.0412C3.58691 105.745 0.545532 117.674 0.545532 132.18V132.18C0.545532 206.165 64.9833 245.939 105.603 245.939V245.939C160.039 245.939 218.387 204.21 244.399 161.81V161.81C257.481 140.486 277.749 110.687 255.102 61.7853V61.7853C230.331 8.29868 188.041 1.01503 150.124 1.01503V1.01503C112.209 1.01503 80.9406 16.5067 52.5716 39.1302" fill="white"/>
</mask>
<g mask="url(#mask3)">
<path d="M181.422 35.6827C181.705 34.2623 179.972 33.0713 178.276 32.5905C176.579 32.1086 174.315 32.2496 173.892 33.6974C173.467 35.1451 174.846 36.523 177.002 37.1578C179.159 37.7937 181.14 37.1032 181.422 35.6827" fill="#EABD63"/>
</g>
<mask id="mask4" mask-type="alpha" maskUnits="userSpaceOnUse" x="0" y="1" width="266" height="245">
<path fill-rule="evenodd" clip-rule="evenodd" d="M52.5716 39.1302C24.2037 61.7525 8.53953 96.027 8.53953 96.027V96.027L8.55266 96.0412C3.58691 105.745 0.545532 117.674 0.545532 132.18V132.18C0.545532 206.165 64.9833 245.939 105.603 245.939V245.939C160.039 245.939 218.387 204.21 244.399 161.81V161.81C257.481 140.486 277.749 110.687 255.102 61.7853V61.7853C230.331 8.29868 188.041 1.01503 150.124 1.01503V1.01503C112.209 1.01503 80.9406 16.5067 52.5716 39.1302" fill="white"/>
</mask>
<g mask="url(#mask4)">
<path fill-rule="evenodd" clip-rule="evenodd" d="M218.866 88.5116C220.351 97.2725 214.267 97.2386 211.572 94.8424C212.963 102.592 211.708 106.988 205.732 112.699C197.643 108.07 195.638 101.31 195.506 98.7782C191.524 103.107 185.208 100.671 183.982 93.7837C187.282 94.9965 190.298 90.8083 191.336 85.498C191.357 85.393 191.378 85.2821 191.401 85.1658C192.385 80.0953 195.395 64.5786 206.704 59.3639C204.652 59.7758 202.396 60.0162 199.928 60.0413L199.946 60.0424C193.728 61.4454 180.568 73.9869 185.253 84.8862C181.246 85.7646 175.983 83.4143 174.713 78.0308C173.143 71.3733 181.319 60.3921 195.091 59.8239C193.534 59.6764 191.903 59.4502 190.201 59.1388C190.218 59.1464 190.236 59.153 190.253 59.1595C182.235 57.3239 168.551 69.4436 170.201 73.1718C165.314 72.3905 163.335 67.2234 163.688 64.3857C164.389 58.7334 172.952 55.9657 181.499 56.9644C180.816 56.7513 180.131 56.535 179.429 56.2968C178.189 55.8761 176.996 55.4456 175.823 55.0096C164.817 52.62 157.725 61.3361 157.983 62.6287C154.424 61.5011 149.981 56.3689 153.975 52.9631C156.308 50.9745 162.847 50.6543 167.505 51.5547C166.861 51.2564 166.234 50.9526 165.616 50.6478C165.621 50.6521 165.626 50.6543 165.63 50.6598C160.577 48.7247 150.36 47.2485 148.405 50.816C144.284 50.1429 143.004 45.5254 147.036 44.7638C150.652 44.0798 154.796 45.1287 157.435 46.0225C145.603 38.2964 142.086 31.5459 144.799 25.6882C148.795 17.0551 167.114 14.3246 182.994 24.2524C198.875 34.1781 196.428 43.4067 188.911 46.853C177.457 52.1032 164.412 42.9412 170.246 35.3648C171.542 42.054 187.464 43.3084 184.723 34.2688C180.755 21.1908 157.389 20.9668 155.275 30.3058C152.101 44.3224 187.288 62.9554 207.543 56.7186C212.605 55.1604 216.661 52.467 219.224 49.0055C215.335 52.8943 208.721 54.53 204.475 53.5957C198.349 52.2485 196.757 48.0603 198.173 44.023C201.304 48.3368 221.399 50.1965 222.253 40.1353C222.281 38.1521 221.938 36.0695 221.168 33.9148C222.202 38.7749 219.146 42.3272 212.974 42.7009C203.035 43.3029 198.528 36.7776 198.972 33.8023C200.888 35.6958 207.807 37.832 213.112 36.1329C216.586 35.0206 219.007 29.754 216.772 26.2487C215.489 24.6283 214.19 23.1521 212.874 21.7896C215.295 25.0457 215.249 27.9467 212.125 30.1298C206.359 34.1563 192.337 28.103 189.939 21.3394C202.362 22.4517 208.453 17.9085 201.793 13.0079C199.527 11.6563 197.196 10.4762 194.787 9.39887C197.963 11.5066 200.006 13.6406 200.006 14.8971C200.006 17.7916 191.254 17.3807 186.587 14.4852C192.032 12.5075 183.696 5.37243 178.561 3.29092V3.29202C177.081 2.77191 175.572 2.23869 174.031 1.67816C177.384 2.47034 180.504 3.33681 183.446 4.25465C184.627 4.58026 185.786 4.95832 186.913 5.38882C219.694 16.7219 225.477 35.4085 224.069 44.3333C224.074 44.3267 224.079 44.3194 224.084 44.312C224.091 44.3022 224.098 44.2922 224.104 44.2841C223.999 45.6992 223.784 47.2071 223.561 48.7715C222.811 54.0249 221.97 59.9152 224.9 65.0654C218.189 68.9869 216.169 59.1617 218.718 53.5356L218.723 53.5269C218.18 54.0284 217.594 54.5136 216.967 54.978L216.973 54.9758C213.256 58.2384 217.357 71.2323 224.57 73.068C224.005 78.8602 217.981 79.7736 215.095 77.7292C210.529 74.4961 209.418 61.7022 214.255 56.6945C213.479 57.1141 212.653 57.5031 211.777 57.8571C211.786 57.856 211.793 57.8538 211.803 57.8516C207.95 60.2358 205.394 69.7835 209.737 77.8167C214.078 85.8488 216.226 87.1927 218.866 88.5116ZM204.25 70.0763C202.186 72.2692 197.318 81.2334 197.454 90.2937C197.519 94.5726 200.038 98.3772 203.28 97.3719C205.985 96.5317 208.111 93.9443 206.526 88.9497C204.94 83.9563 202.403 72.8746 204.25 70.0763Z" fill="#EABD63"/>
</g>
<mask id="mask5" mask-type="alpha" maskUnits="userSpaceOnUse" x="0" y="1" width="266" height="245">
<path fill-rule="evenodd" clip-rule="evenodd" d="M52.5716 39.1302C24.2037 61.7525 8.53953 96.027 8.53953 96.027V96.027L8.55266 96.0412C3.58691 105.745 0.545532 117.674 0.545532 132.18V132.18C0.545532 206.165 64.9833 245.939 105.603 245.939V245.939C160.039 245.939 218.387 204.21 244.399 161.81V161.81C257.481 140.486 277.749 110.687 255.102 61.7853V61.7853C230.331 8.29868 188.041 1.01503 150.124 1.01503V1.01503C112.209 1.01503 80.9406 16.5067 52.5716 39.1302" fill="white"/>
</mask>
<g mask="url(#mask5)">
<path d="M241.231 72.3977C245.05 67.908 247.177 63.8291 246.194 58.0828C245.641 54.8562 242.152 51.0964 238.534 50.856C234.886 50.6134 232.238 53.5789 234.991 56.3707C236.634 54.5667 242.319 57.6873 241.129 64.4082C240.589 67.4677 238.758 69.9316 236.349 72.5332C238.848 68.4369 238.876 64.3591 237.288 62.2317C236.101 60.6429 233.052 60.0398 231.062 63.4543C233.843 64.9611 236.712 69.347 230.752 78.368L230.756 78.3647C227.515 81.9028 224.155 86.257 221.68 92.4775C217.515 102.957 214.308 116.481 213.415 127.816C210.462 117.187 202.244 121.756 202.244 128.4C205.557 125.843 211.677 136.548 214.175 143.33C214.175 143.33 214.175 143.317 214.176 143.31C214.454 144.367 214.787 145.334 215.189 146.177C215.18 145.97 215.18 145.758 215.174 145.549C216.196 127.792 233.775 110.313 244.424 119.561C246.289 113.312 243.388 101.766 233.605 103.896C221.918 106.439 217.238 116.604 215.706 128.92C216.335 122.007 217.426 115.191 218.837 109.044C222.247 97.6141 239.243 90.2823 243.517 102.483C247.339 90.5981 237.132 84.3121 229.708 87.1366C227.889 87.8293 226.458 88.9111 225.289 90.2911C225.879 89.1449 226.478 88.0664 227.09 87.0601C231.369 81.9552 239.543 81.4559 242.908 88.3921C247.268 84.665 244.436 78.733 239.982 78.2937C237.354 78.0348 234.853 78.6117 232.691 79.9294C235.715 77.0546 238.932 75.349 242.308 74.5033C253.448 71.7148 255.607 84.6115 255.41 88.3921C255.41 88.3921 258.307 88.2609 258.353 87.5387C255.721 83.8794 254.038 69.0651 241.231 72.3977" fill="#EABD63"/>
</g>
<mask id="mask6" mask-type="alpha" maskUnits="userSpaceOnUse" x="0" y="1" width="266" height="245">
<path fill-rule="evenodd" clip-rule="evenodd" d="M52.5716 39.1302C24.2037 61.7525 8.53953 96.027 8.53953 96.027V96.027L8.55266 96.0412C3.58691 105.745 0.545532 117.674 0.545532 132.18V132.18C0.545532 206.165 64.9833 245.939 105.603 245.939V245.939C160.039 245.939 218.387 204.21 244.399 161.81V161.81C257.481 140.486 277.749 110.687 255.102 61.7853V61.7853C230.331 8.29868 188.041 1.01503 150.124 1.01503V1.01503C112.209 1.01503 80.9406 16.5067 52.5716 39.1302" fill="white"/>
</mask>
<g mask="url(#mask6)">
<path d="M118.343 21.9227C115.824 23.3289 112.264 23.3147 110.001 27.6471C107.739 31.9784 108.068 35.6508 106.607 36.4987C111.698 34.71 126.359 32.6373 127.208 23.5038C129.942 23.0809 131.639 22.139 131.733 21.1961C133.713 20.5853 151.027 17.9465 156.031 16.6484C161.769 15.158 167.058 11.0802 164.378 7.42859C164.369 7.41548 164.357 7.40565 164.346 7.39253C160.85 0.993936 137.238 0.289172 131.404 1.30206C139.577 0.815833 145.045 4.72973 142.625 7.59905C138.691 12.2603 119.519 10.5831 120.579 6.98169C116.185 7.73563 114.654 11.1414 120.579 13.7026C125.815 15.9655 138.758 17.3029 149.296 16.3851C141.492 17.8045 131.558 19.3833 130.555 19.4555C128.716 18.4185 127.16 18.7496 124.473 19.1725C123.06 17.5247 109.954 13.2404 97.1783 19.5964C103.637 20.0663 105.239 20.6792 107.173 21.7621C109.105 22.8449 113.19 23.1268 118.343 21.9227" fill="#EABD63"/>
</g>
<mask id="mask7" mask-type="alpha" maskUnits="userSpaceOnUse" x="0" y="1" width="266" height="245">
<path fill-rule="evenodd" clip-rule="evenodd" d="M52.5716 39.1302C24.2037 61.7525 8.53953 96.027 8.53953 96.027V96.027L8.55266 96.0412C3.58691 105.745 0.545532 117.674 0.545532 132.18V132.18C0.545532 206.165 64.9833 245.939 105.603 245.939V245.939C160.039 245.939 218.387 204.21 244.399 161.81V161.81C257.481 140.486 277.749 110.687 255.102 61.7853V61.7853C230.331 8.29868 188.041 1.01503 150.124 1.01503V1.01503C112.209 1.01503 80.9406 16.5067 52.5716 39.1302" fill="white"/>
</mask>
<g mask="url(#mask7)">
<path d="M87.5034 28.5543C86.3142 28.9368 83.2115 30.4632 84.1885 32.1186C85.1665 33.774 87.8294 33.491 90.7625 32.5141C88.4672 34.3815 89.1335 36.2543 92.6026 37.0847C95.6188 37.8059 101.103 36.7624 103.267 34.4951C105.901 31.7373 106.154 30.5747 106.922 27.8878C104.074 29.8306 100.035 28.4505 99.554 27.0082C98.9665 25.2502 101.66 23.5391 105.476 23.0736C104.753 22.7764 102.743 22.135 99.5015 21.8072C94.3311 21.2838 86.9804 22.642 84.09 26.8859C83.4391 27.8441 85.5484 28.597 87.5034 28.5543" fill="#EABD63"/>
</g>
<mask id="mask8" mask-type="alpha" maskUnits="userSpaceOnUse" x="0" y="1" width="266" height="245">
<path fill-rule="evenodd" clip-rule="evenodd" d="M52.5716 39.1302C24.2037 61.7525 8.53953 96.027 8.53953 96.027V96.027L8.55266 96.0412C3.58691 105.745 0.545532 117.674 0.545532 132.18V132.18C0.545532 206.165 64.9833 245.939 105.603 245.939V245.939C160.039 245.939 218.387 204.21 244.399 161.81V161.81C257.481 140.486 277.749 110.687 255.102 61.7853V61.7853C230.331 8.29868 188.041 1.01503 150.124 1.01503V1.01503C112.209 1.01503 80.9406 16.5067 52.5716 39.1302" fill="white"/>
</mask>
<g mask="url(#mask8)">
<path d="M131.106 30.8555C128.2 33.0976 121.601 36.2663 125.311 40.4851C127.444 42.9118 133.819 42.006 137.326 38.5106C140.34 35.5025 139.476 28.4833 132.825 25.0622C133.904 27.1929 133.701 28.8537 131.106 30.8555" fill="#EABD63"/>
</g>
<mask id="mask9" mask-type="alpha" maskUnits="userSpaceOnUse" x="0" y="1" width="266" height="245">
<path fill-rule="evenodd" clip-rule="evenodd" d="M52.5716 39.1302C24.2037 61.7525 8.53953 96.027 8.53953 96.027V96.027L8.55266 96.0412C3.58691 105.745 0.545532 117.674 0.545532 132.18V132.18C0.545532 206.165 64.9833 245.939 105.603 245.939V245.939C160.039 245.939 218.387 204.21 244.399 161.81V161.81C257.481 140.486 277.749 110.687 255.102 61.7853V61.7853C230.331 8.29868 188.041 1.01503 150.124 1.01503V1.01503C112.209 1.01503 80.9406 16.5067 52.5716 39.1302" fill="white"/>
</mask>
<g mask="url(#mask9)">
<path d="M63.9334 41.8189C70.2689 40.0706 83.2505 30.3449 77.5868 25.4651C75.1351 23.353 67.7406 23.7594 55.6025 32.9629C60.985 29.4708 69.6792 25.1274 69.9888 29.0719C70.189 31.6331 64.604 39.9067 54.3662 40.6869C54.6233 42.1827 56.8639 43.7704 63.9334 41.8189" fill="#EABD63"/>
</g>
<mask id="mask10" mask-type="alpha" maskUnits="userSpaceOnUse" x="0" y="1" width="266" height="245">
<path fill-rule="evenodd" clip-rule="evenodd" d="M52.5716 39.1302C24.2037 61.7525 8.53953 96.027 8.53953 96.027V96.027L8.55266 96.0412C3.58691 105.745 0.545532 117.674 0.545532 132.18V132.18C0.545532 206.165 64.9833 245.939 105.603 245.939V245.939C160.039 245.939 218.387 204.21 244.399 161.81V161.81C257.481 140.486 277.749 110.687 255.102 61.7853V61.7853C230.331 8.29868 188.041 1.01503 150.124 1.01503V1.01503C112.209 1.01503 80.9406 16.5067 52.5716 39.1302" fill="white"/>
</mask>
<g mask="url(#mask10)">
<path d="M227.018 133.527C222.484 137.301 221.649 144.445 227.018 144.718C232.635 145.002 237.1 142.947 241.838 138.726C240.442 140.099 238.928 141.639 237.353 143.356C227.61 150.432 210.502 157.906 206.934 156.013C204.095 161.343 206.95 165.461 209.455 166.23C213.493 167.474 220.612 163 227.003 156.901C226.374 157.925 225.765 158.987 225.172 160.07C219.539 166.449 209.364 177.163 206.076 176.94C203.77 180.43 201.919 186.565 206.775 185.202C209.93 184.319 214.895 178.468 220.066 170.538C214.072 183.346 207.084 199.483 209.805 203.942C211.792 207.197 219.264 202.65 228.692 191.708C238.12 180.764 244.695 163.806 240.854 160.277C237.605 157.29 231.156 162.965 227.289 170.308C224.081 176.398 224.449 180.803 227.183 181.839C226.995 173.177 233.783 168.469 235.386 168.751C236.988 169.034 237.837 171.105 234.726 178.327C231.615 185.549 221.149 198.131 217.661 195.125C214.173 192.12 220.018 176.661 225.581 164.514C231.143 152.368 239.704 141.99 244.663 137.282C244.695 136.772 244.672 136.32 244.695 135.973C244.752 134.036 244.719 135.115 244.823 132.038C241.228 134.783 232.025 137.207 227.018 133.527" fill="#EABD63"/>
</g>
<mask id="mask11" mask-type="alpha" maskUnits="userSpaceOnUse" x="0" y="1" width="266" height="245">
<path fill-rule="evenodd" clip-rule="evenodd" d="M52.5716 39.1302C24.2037 61.7525 8.53953 96.027 8.53953 96.027V96.027L8.55266 96.0412C3.58691 105.745 0.545532 117.674 0.545532 132.18V132.18C0.545532 206.165 64.9833 245.939 105.603 245.939V245.939C160.039 245.939 218.387 204.21 244.399 161.81V161.81C257.481 140.486 277.749 110.687 255.102 61.7853V61.7853C230.331 8.29868 188.041 1.01503 150.124 1.01503V1.01503C112.209 1.01503 80.9406 16.5067 52.5716 39.1302" fill="white"/>
</mask>
<g mask="url(#mask11)">
<path d="M161.255 236.346C224.273 196.069 189.009 132.038 251.859 53.8793C268.63 144.665 261.426 234.099 161.255 236.346" fill="#7C3813"/>
</g>
<mask id="mask12" mask-type="alpha" maskUnits="userSpaceOnUse" x="11" y="1" width="248" height="244">
<path fill-rule="evenodd" clip-rule="evenodd" d="M131.456 1.54763C139.628 1.06091 145.096 4.97873 142.676 7.85091V7.85091C138.743 12.5179 119.574 10.839 120.634 7.23404V7.23404C116.239 7.98763 114.708 11.3979 120.634 13.9606V13.9606C125.868 16.2269 138.809 17.5656 149.347 16.6469V16.6469C141.543 18.0665 131.61 19.6481 130.607 19.7192V19.7192C128.768 18.6823 127.214 19.0126 124.527 19.437V19.437C123.113 17.7876 110.009 13.499 97.2356 19.8614V19.8614C103.693 20.3317 105.295 20.9453 107.228 22.0281V22.0281C109.16 23.1131 113.246 23.3953 118.397 22.1889V22.1889C115.878 23.5976 112.318 23.5834 110.056 27.9201V27.9201C107.794 32.2558 108.123 35.9319 106.663 36.7795V36.7795C111.753 34.989 126.412 32.9153 127.261 23.7726V23.7726C129.995 23.3494 131.691 22.4054 131.785 21.4626V21.4626C133.765 20.8512 151.078 18.2098 156.081 16.9104V16.9104C161.819 15.4175 167.106 11.3356 164.427 7.68029V7.68029C164.418 7.66826 164.405 7.65841 164.395 7.64419V7.64419C161.712 2.72779 147.175 1.17029 137.925 1.17029V1.17029C135.126 1.17029 132.811 1.31248 131.456 1.54763M178.608 3.54044V3.53935C183.743 5.62185 192.079 12.7651 186.634 14.7448V14.7448C191.3 17.6422 200.052 18.0556 200.052 15.1572V15.1572C200.052 13.8994 198.007 11.7633 194.832 9.65341V9.65341C197.242 10.7319 199.572 11.9131 201.838 13.265V13.265C208.497 18.1726 202.407 22.7193 189.985 21.6059V21.6059C192.383 28.3762 206.403 34.4356 212.168 30.4051V30.4051C215.292 28.2209 215.338 25.3159 212.917 22.0565V22.0565C214.233 23.4204 215.533 24.897 216.816 26.5212V26.5212C219.05 30.0289 216.629 35.3008 213.154 36.4142V36.4142C207.851 38.1161 200.934 35.9767 199.017 34.0812V34.0812C198.573 37.0595 203.079 43.5914 213.016 42.9887V42.9887C219.187 42.6147 222.244 39.0589 221.21 34.1939V34.1939C221.98 36.3508 222.324 38.4354 222.296 40.4206V40.4206C221.442 50.4908 201.348 48.6292 198.218 44.3122V44.3122C196.802 48.3536 198.395 52.5459 204.519 53.8945V53.8945C208.765 54.8297 215.377 53.1923 219.266 49.2997V49.2997C216.704 52.7647 212.649 55.4608 207.587 57.0204V57.0204C187.335 63.2636 152.152 44.6129 155.325 30.5812V30.5812C157.439 21.2329 180.803 21.4572 184.77 34.5483V34.5483C187.51 43.5968 171.591 42.3412 170.294 35.6453V35.6453C164.461 43.2294 177.505 52.4004 188.957 47.145V47.145C196.473 43.6964 198.92 34.4564 183.041 24.5218V24.5218C167.162 14.584 148.846 17.3162 144.85 25.959V25.959C142.138 31.8226 145.655 38.5798 157.484 46.3137V46.3137C154.846 45.419 150.703 44.369 147.087 45.0537V45.0537C143.056 45.815 144.335 50.4383 148.455 51.112V51.112C150.41 47.5409 160.627 49.0186 165.678 50.9545V50.9545C165.674 50.9501 165.67 50.9479 165.664 50.9436V50.9436C166.282 51.2487 166.91 51.5528 167.553 51.8514V51.8514C162.896 50.9501 156.356 51.2695 154.025 53.2612V53.2612C150.032 56.6704 154.474 61.8089 158.032 62.9354V62.9354C157.774 61.6426 164.867 52.9178 175.87 55.3087V55.3087C177.043 55.7462 178.236 56.1772 179.476 56.5983V56.5983C180.178 56.8367 180.863 57.0533 181.545 57.2665V57.2665C173.001 56.2669 164.438 59.0373 163.737 64.6942V64.6942C163.385 67.5358 165.362 72.7081 170.249 73.489V73.489C168.599 69.7583 182.282 57.6275 190.3 59.4639V59.4639C190.282 59.4573 190.264 59.4497 190.246 59.4431V59.4431C191.948 59.7548 193.579 59.9812 195.136 60.1278V60.1278C181.367 60.6976 173.191 71.6898 174.76 78.354V78.354C176.03 83.7429 181.293 86.0956 185.3 85.2162V85.2162C180.615 74.305 193.773 61.752 199.991 60.3476V60.3476L199.972 60.3454C202.441 60.3214 204.696 60.0808 206.748 59.6684V59.6684C195.181 65.0081 192.296 81.1387 191.382 85.8287V85.8287C190.345 91.1443 187.329 95.3367 184.029 94.1226V94.1226C185.254 101.017 191.571 103.456 195.551 99.1222V99.1222C195.683 101.656 197.688 108.423 205.777 113.058V113.058C211.752 107.341 213.006 102.939 211.617 95.1825V95.1825C214.31 97.5822 220.393 97.6139 218.909 88.8453V88.8453C216.269 87.5251 214.121 86.1798 209.78 78.1397V78.1397C205.438 70.0984 207.994 60.5412 211.846 58.1547V58.1547C211.838 58.1568 211.829 58.159 211.82 58.1601V58.1601C212.696 57.8047 213.522 57.4164 214.298 56.9975V56.9975C209.461 62.0079 210.572 74.8158 215.138 78.0522V78.0522C218.024 80.0986 224.047 79.1842 224.612 73.3873V73.3873C217.4 71.5487 213.3 58.5419 217.016 55.2759V55.2759L217.01 55.2781C217.636 54.8122 218.224 54.3276 218.765 53.8256V53.8256L218.762 53.8354C216.212 59.4661 218.231 69.3011 224.941 65.3745V65.3745C221.14 58.6851 223.688 50.7467 224.146 44.5736V44.5736C224.135 44.5878 224.122 44.6075 224.111 44.6239V44.6239C225.519 35.6879 219.738 16.9837 186.959 5.63935V5.63935C185.834 5.20951 184.673 4.82998 183.493 4.50404V4.50404C180.551 3.58529 177.432 2.71794 174.079 1.92498V1.92498C175.62 2.48498 177.129 3.01982 178.608 3.54044M197.499 90.6292C197.363 81.5598 202.23 72.5878 204.294 70.3915V70.3915C202.448 73.1915 204.984 84.2854 206.569 89.2839V89.2839C208.154 94.2834 206.03 96.8734 203.325 97.7134V97.7134C202.967 97.825 202.619 97.8775 202.282 97.8775V97.8775C199.558 97.8775 197.557 94.4409 197.499 90.6292M84.1482 27.1578C83.4963 28.1159 85.6064 28.8706 87.5601 28.8279V28.8279C86.371 29.2097 83.2698 30.7387 84.2467 32.3969V32.3969C85.2246 34.0528 87.8872 33.7684 90.8188 32.7917V32.7917C88.5249 34.6609 89.1911 36.5356 92.6598 37.3668V37.3668C95.6757 38.0887 101.158 37.0442 103.323 34.7758V34.7758C105.957 32.0129 106.21 30.8503 106.977 28.1608V28.1608C104.13 30.1054 100.092 28.7251 99.6094 27.2803V27.2803C99.0219 25.5194 101.716 23.8076 105.531 23.3417V23.3417C104.808 23.0453 102.799 22.4022 99.5579 22.0729V22.0729C98.8644 22.0029 98.1326 21.9669 97.3767 21.9669V21.9669C92.4979 21.9669 86.65 23.4795 84.1482 27.1578M55.6632 33.2412C61.0462 29.7445 69.7394 25.3979 70.0479 29.3464V29.3464C70.2492 31.9101 64.6638 40.1931 54.4271 40.9719V40.9719C54.6842 42.4692 56.9244 44.0584 63.9932 42.105V42.105C70.329 40.3561 83.3081 30.6195 77.6461 25.7348V25.7348C76.9001 25.0928 75.6979 24.6826 74.045 24.6826V24.6826C70.2601 24.6826 64.1103 26.8286 55.6632 33.2412M131.158 31.1314C128.253 33.3758 121.656 36.5476 125.364 40.7717V40.7717C127.498 43.1998 133.871 42.292 137.377 38.7942V38.7942C140.392 35.7842 139.529 28.7558 132.877 25.3312V25.3312C133.957 27.4662 133.753 29.1287 131.158 31.1314M173.94 33.9762C173.515 35.4254 174.895 36.8047 177.051 37.4401V37.4401C179.207 38.0767 181.187 37.3854 181.469 35.9636V35.9636C181.752 34.5417 180.019 33.3506 178.323 32.8683V32.8683C177.767 32.7097 177.15 32.6189 176.557 32.6189V32.6189C175.341 32.6189 174.224 33.0017 173.94 33.9762M18.7694 76.6051C15.9351 80.4978 13.7407 84.549 11.6273 89.2358V89.2358C33.386 52.3972 86.3579 42.0044 134.129 76.4148V76.4148C189.134 116.038 214.775 218.916 129.543 244.41V244.41C140.081 243.44 142.359 242.761 151.565 238.262V238.262C199.776 214.703 218.276 129.726 148.374 70.7197V70.7197C130.116 55.3054 105.834 47.0356 82.4144 47.0345V47.0345C57.4419 47.0334 33.4505 56.4353 18.7694 76.6051M235.033 56.6726C236.676 54.8669 242.358 57.9906 241.169 64.7172V64.7172C240.629 67.7797 238.799 70.2472 236.389 72.8503V72.8503C238.889 68.7498 238.916 64.6679 237.329 62.5395V62.5395C236.142 60.9481 233.093 60.3454 231.103 63.7623V63.7623C233.885 65.2717 236.752 69.662 230.794 78.692V78.692L230.797 78.6876C227.557 82.2292 224.196 86.5878 221.723 92.8156V92.8156C217.558 103.306 214.352 116.842 213.459 128.189V128.189C210.505 117.55 202.288 122.124 202.288 128.773V128.773C205.601 126.214 211.721 136.929 214.218 143.719V143.719C214.218 143.719 214.218 143.705 214.219 143.699V143.699C214.497 144.756 214.829 145.725 215.232 146.569V146.569C215.224 146.361 215.224 146.148 215.218 145.939V145.939C216.239 128.166 233.817 110.668 244.463 119.925V119.925C246.329 113.671 243.427 102.112 233.646 104.244V104.244C221.962 106.79 217.282 116.966 215.749 129.294V129.294C216.377 122.374 217.47 115.55 218.88 109.398V109.398C222.289 97.9573 239.283 90.6172 243.556 102.83V102.83C247.378 90.9333 237.173 84.642 229.749 87.4693V87.4693C227.93 88.1628 226.499 89.2445 225.332 90.6259V90.6259C225.922 89.4786 226.521 88.399 227.132 87.3928V87.3928C231.41 82.2828 239.584 81.7819 242.948 88.725V88.725C247.307 84.9942 244.476 79.0562 240.023 78.6165V78.6165C237.394 78.3584 234.895 78.9359 232.733 80.2539V80.2539C235.757 77.3773 238.973 75.67 242.347 74.8234V74.8234C253.488 72.0311 255.645 84.9406 255.449 88.725V88.725C255.449 88.725 258.346 88.5937 258.392 87.8708V87.8708C255.76 84.2089 254.076 69.3798 241.271 72.7158V72.7158C245.09 68.2204 247.216 64.1386 246.233 58.3865V58.3865C245.682 55.1567 242.193 51.3931 238.575 51.1514V51.1514C238.435 51.1426 238.295 51.1383 238.157 51.1383V51.1383C234.731 51.1372 232.386 53.9864 235.033 56.6726M227.059 133.907C222.526 137.685 221.691 144.834 227.059 145.108V145.108C232.676 145.393 237.142 143.335 241.879 139.11V139.11C240.483 140.483 238.968 142.026 237.393 143.744V143.744C227.652 150.827 210.546 158.308 206.979 156.414V156.414C204.139 161.749 206.994 165.872 209.5 166.643V166.643C213.536 167.886 220.654 163.407 227.045 157.304V157.304C226.415 158.328 225.808 159.392 225.214 160.475V160.475C219.581 166.861 209.408 177.585 206.121 177.361V177.361C203.814 180.856 201.963 186.996 206.819 185.633V185.633C209.974 184.749 214.938 178.892 220.11 170.953V170.953C214.115 183.775 207.128 199.928 209.849 204.391V204.391C211.834 207.651 219.306 203.097 228.734 192.145V192.145C238.16 181.19 244.735 164.216 240.895 160.682V160.682C237.646 157.692 231.197 163.372 227.33 170.723V170.723C224.123 176.819 224.492 181.229 227.224 182.267V182.267C227.036 173.595 233.824 168.883 235.426 169.165V169.165C237.029 169.448 237.878 171.521 234.767 178.752V178.752C231.656 185.979 221.191 198.574 217.704 195.565V195.565C214.216 192.556 220.06 177.082 225.623 164.923V164.923C231.184 152.765 239.744 142.377 244.704 137.664V137.664C244.735 137.155 244.711 136.702 244.735 136.353V136.353C244.792 134.415 244.758 135.495 244.863 132.415V132.415C241.268 135.163 232.065 137.589 227.059 133.907" fill="white"/>
</mask>
<g mask="url(#mask12)">
<path d="M165.144 133.89C155.577 104.77 145.969 88.1482 126.186 80.7239C162.451 54.9453 207.049 46.5847 214.359 70.3912C221.671 94.1978 189.628 107.772 165.144 133.89" fill="#EAEAEA"/>
</g>
<mask id="mask13" mask-type="alpha" maskUnits="userSpaceOnUse" x="239" y="4" width="252" height="293">
<path fill-rule="evenodd" clip-rule="evenodd" d="M239.742 4.36641H490.495V296.363H239.742V4.36641Z" fill="white"/>
</mask>
<g mask="url(#mask13)">
<path d="M459.625 264.721C465.896 257.826 490.495 204.489 490.495 143.454C490.495 84.6303 473.413 42.5408 468.245 30.4714C460.341 12.0131 417.702 4.36641 365.118 4.36641C312.535 4.36641 269.897 12.0131 261.992 30.4714C256.824 42.5408 239.742 84.6303 239.742 143.454C239.742 204.489 264.341 257.826 270.612 264.721C276.882 271.616 297.206 296.364 365.118 296.364C433.031 296.364 453.355 271.616 459.625 264.721" fill="#DD0E1D"/>
</g>
<path d="M452.815 28.995C452.815 39.1899 412.656 45.1578 364.007 45.1578C315.361 45.1578 277.422 36.8932 277.422 26.6984C277.422 16.5046 315.361 8.23897 364.007 8.23897C412.656 8.23897 452.815 18.8002 452.815 28.995" fill="#EAEAEA"/>
<path d="M298.956 23.317C298.862 23.5051 313.952 24.7628 313.952 24.7628C313.952 24.7628 310.194 27.2749 315.938 28.3051C321.783 29.3538 334.342 29.6601 337.815 26.8133C341.753 23.586 324.873 22.6882 324.179 22.6882C325.125 22.1829 328.213 20.0962 328.213 20.0962C328.213 20.0962 334.328 20.7918 337.102 20.6649C339.876 20.5381 346.117 21.1079 348.134 18.8943C350.151 16.6808 342.902 16.0487 340.38 15.9853C337.859 15.9229 329.222 15.6692 326.448 17.9462C322.918 17.6301 312.958 16.7443 312.958 16.7443C312.958 16.7443 320.712 12.4452 341.641 13.1396C362.57 13.8363 365.722 17.6301 364.965 18.8943C364.21 20.1597 361.94 22.3721 349.016 22.8784C353.619 23.9535 356.266 25.6606 355.383 26.8626C354.501 28.0634 350.782 33.8181 318.758 32.2378C310.499 31.3519 288.862 30.0155 298.956 23.317" fill="#DD0E1D"/>
<path fill-rule="evenodd" clip-rule="evenodd" d="M406.25 18.5324C406.806 18.5759 407.294 18.6142 407.707 18.6416C412.435 18.7674 436.705 20.2908 427.438 29.3308C418.171 38.3707 401.97 40.3316 385.202 38.6868C368.433 37.0431 354.249 34.5135 368.496 25.2176C381.691 16.6091 399.281 17.9867 406.25 18.5324ZM387.661 35.209C395.288 36.2841 401.213 34.7661 408.715 28.9491C416.217 23.131 413.064 22.2462 404.365 21.4238C395.666 20.6025 388.794 23.5105 385.517 26.1035C375.242 33.1224 380.032 34.134 387.661 35.209Z" fill="#DD0E1D"/>
<mask id="mask14" mask-type="alpha" maskUnits="userSpaceOnUse" x="239" y="4" width="252" height="293">
<path fill-rule="evenodd" clip-rule="evenodd" d="M261.992 30.4717C256.825 42.541 239.742 84.6305 239.742 143.453V143.453C239.742 204.488 264.342 257.826 270.612 264.721V264.721C276.883 271.616 297.206 296.363 365.119 296.363V296.363C433.032 296.363 453.355 271.616 459.625 264.721V264.721C465.896 257.826 490.495 204.488 490.495 143.453V143.453C490.495 84.6305 473.412 42.541 468.245 30.4717V30.4717C460.342 12.0133 417.702 4.36554 365.119 4.36554V4.36554C312.535 4.36554 269.896 12.0133 261.992 30.4717" fill="white"/>
</mask>
<g mask="url(#mask14)">
<path d="M365.119 77.9149C445.291 77.9149 479.723 61.8877 477.613 48.1068C475.786 42.5315 472.57 34.5698 472.57 34.5698C477.435 47.5862 445.085 63.2121 365.119 63.2121C285.152 63.2121 252.802 47.5862 257.667 34.5698C257.667 34.5698 254.451 42.5315 252.624 48.1068C250.514 61.8877 284.947 77.9149 365.119 77.9149" fill="#EABD63"/>
</g>
<mask id="mask15" mask-type="alpha" maskUnits="userSpaceOnUse" x="239" y="4" width="252" height="293">
<path fill-rule="evenodd" clip-rule="evenodd" d="M261.992 30.4717C256.825 42.541 239.742 84.6305 239.742 143.453V143.453C239.742 204.488 264.342 257.826 270.612 264.721V264.721C276.883 271.616 297.206 296.363 365.119 296.363V296.363C433.032 296.363 453.355 271.616 459.625 264.721V264.721C465.896 257.826 490.495 204.488 490.495 143.453V143.453C490.495 84.6305 473.412 42.541 468.245 30.4717V30.4717C460.342 12.0133 417.702 4.36554 365.119 4.36554V4.36554C312.535 4.36554 269.896 12.0133 261.992 30.4717" fill="white"/>
</mask>
<g mask="url(#mask15)">
<path d="M489.7 106.292C488.117 101.006 485.385 99.0594 483.881 102.493C483.407 103.578 483.082 105.528 482.867 108.036C482.016 95.644 480.394 84.0526 481.819 82.1988C479.657 77.8199 473.822 80.7148 473.512 91.521C473.226 101.493 474.534 103.422 476.55 109.431C471.808 99.0277 467.55 84.8236 470.598 81.4333C466.962 78.1732 460.574 86.1939 463.123 94.85C464.419 99.2497 466.371 105.605 470.061 110.129C456.624 110.188 444.988 118.423 439.315 138.081C433.643 157.739 443.767 174.136 452.977 174.509C462.188 174.882 472.691 164.974 475.229 142.924C476.363 133.064 473.488 127.768 470.137 126.803C466.754 125.828 461.078 129.206 461.906 138.101C464.004 134.637 471.5 135.055 470.647 146.652C470.024 155.11 465.289 161.727 459.557 162.193C455.475 162.524 449.783 158.578 448.561 147.196C446.934 132.058 453.856 118.253 467.827 116.081C479.894 114.205 482.093 134.317 483.05 141.732C483.127 143.922 483.186 145.799 483.214 147.196C483.391 156.397 482.98 159.656 482.774 162.914C482.709 163.951 482.221 172.125 479.699 183.116C481.258 173.02 479.857 166.159 477.481 164.047C473.099 160.15 469.478 167.031 470.055 170.289C475.046 165.708 477.837 189.613 470.448 209.71C470.229 210.156 470.003 210.602 469.775 211.047C472.033 204.427 472.371 198.912 472.595 196.001C473.362 185.998 472.09 180.138 467.531 178.131C464.035 176.592 459.877 178.552 458.95 181.841C466.501 184.308 464.713 220.445 442.404 241.761C442.25 241.854 442.095 241.947 441.939 242.039C444.461 239.439 446.749 236.049 448.599 231.592C455.908 213.991 444.605 214.11 441.223 214.568C441.219 227.738 429.884 242.873 419.252 248.788C427.169 243.593 432.703 227.435 422.752 227.388C423.664 239.679 408.543 246.506 395.117 247.571C405.195 246.188 413.769 239.507 408.648 232.893C401.184 242.252 373.502 238.873 359.158 222.585C352.598 212.211 348.889 201.431 346.985 194.768C353.837 206.735 363.687 225.881 391.697 225.881C422.74 225.881 434.599 198.371 443.65 196.672C446.713 196.095 447.232 199.968 445.824 201.645C452.815 200.561 456.393 195.058 455.496 188.796C454.936 184.898 448.752 180.626 441.453 185.994C439.627 187.336 436.002 191.441 434.452 194.524C439.615 179.429 438.28 159.579 422.036 139.962C423.313 137.409 423.99 135.229 420.946 129.863C423.144 125.335 432.797 101.022 411.641 89.1117C410.626 95.6516 409.316 102.838 408.3 107.869C407.286 112.899 405.087 124.638 412.192 131.179C409.418 128.046 402.21 124.807 393.708 129.36C383.215 134.978 377.467 135.732 374.76 136.403C379.496 143.111 394.697 155.855 411.458 140.931C413.501 143.614 415.87 145.458 418.238 143.447C426.927 154.255 430.971 164.245 432.177 173.512C428.66 161.67 418.499 153.812 404.536 156.152C392.239 158.213 387.929 167.858 393.096 177.246C399.737 168.815 415.138 168.888 417.926 183.365C420.618 197.344 414.444 213.01 398.419 217.084C401.254 215.065 406.263 209.675 407.691 205.834C414.476 187.581 396.622 176.631 387.317 188.93C394.076 188.088 397.596 200.746 390.572 209.383C383.547 218.018 375.839 216.85 369.283 213.943C360.795 209.152 354.52 199.618 348.398 188.173C352.82 193.801 358.384 198.412 365.976 201.585C380.565 207.681 390.515 192.246 372.232 180.405C362.787 190.745 341.654 172.866 335.579 163.281C334.517 161.312 333.423 159.344 332.294 157.385C336.926 162.727 343.797 166.476 347.331 166.853C355.24 167.693 362.159 163.586 358.77 153.691C339.576 154.59 335.239 145.229 319.477 134.517C340.05 144.179 362.653 138.099 363.752 115.029C364.478 99.7691 353.386 89.3217 341.606 91.498C330.124 93.6175 324.765 104.797 327.95 113.944C336.039 102.244 350.644 108.815 350.084 119.8C349.277 135.629 334.395 135.227 324.788 132.008C317.585 129.595 306.321 122.743 294.041 114.38C301.364 117.372 308.045 117.135 312.881 115.512C327.965 110.451 325.84 91.1382 312.044 89.5207C311.686 105.696 290.348 109.049 279.769 104.354C278.506 103.444 277.246 102.531 275.989 101.615C287.074 105.256 301.884 102.755 301.52 91.5855C301.315 85.2752 294.308 86.1064 291.262 87.7228C290.726 98.8658 273.923 97.4397 267.19 95.1475C265.792 94.1107 264.41 93.0838 263.048 92.0667C268.382 94.6094 276.392 95.4515 279.26 91.1382C282.915 85.6361 280.333 82.691 272.988 83.0508C274.422 88.8022 259.412 87.901 254.362 85.5563C250.185 82.4165 246.343 79.5194 243.009 77.0303C242.813 77.9709 242.669 78.6894 242.669 78.6894C242.669 78.6894 242.842 78.8184 243.142 79.0448C243.441 79.4462 243.933 79.7557 244.553 80.1111C245.657 80.9466 247.238 82.1453 249.206 83.6446C251.68 86.4334 254.321 91.4532 256.029 101.389C257.615 110.626 256.592 118.256 254.161 117.564C253.357 120.305 256.415 124.724 258.607 124.812C265.334 125.488 265.861 116.811 263.235 105.119C261.66 98.1046 258.424 91.8545 252.575 86.2158C254.626 87.784 256.955 89.571 259.519 91.545C264.207 96.4303 267.889 101.366 270.199 120.196C271.736 132.717 265.802 133.614 264.393 132.418C263.626 136.821 266.701 141.783 270.629 142.232C274.557 142.681 282.647 140.726 280.695 124.142C279.374 112.921 276.24 106.039 271.066 100.483C272.999 101.987 275.004 103.552 277.064 105.165C295.913 126.74 287.665 149.113 281.122 149.161C282.229 162.243 302.244 163.665 300.999 143.38C300.207 130.474 296.764 122.166 288.827 114.424C291.336 116.409 293.898 118.446 296.496 120.52C305.191 127.24 311.171 168.813 294.874 166.309C295.27 171.276 300.308 177.978 307.778 177.272C322.135 175.916 322.598 160.74 319.341 151.054C317.248 144.829 314.649 137.937 309.047 131.268C313.283 135.347 317.044 139.539 320.369 143.796C326.085 152.435 331.231 165.271 324.109 182.379C322.208 182.379 320.017 180.93 317.386 189.042C313.587 187.449 295.028 173.978 288.892 200.485C294.443 197.444 298.39 197.154 303.358 200.485C308.326 203.817 319.266 203.929 322.043 194.659C321.76 201.785 320.017 205.7 325.715 214.246C331.414 222.792 330.327 227.752 329.889 230.503C335.003 225.578 340.35 216.651 336.258 205.353C332.168 194.055 329.807 195.56 329.807 195.56C330.83 190.49 330.392 188.318 328.199 185.132C329.34 180.36 332.308 168.361 328.255 155.289C337.934 171.54 341.933 188.023 342.26 201.993C342.793 224.762 334.278 238.943 322.387 245.36C307.739 247.453 293.065 237.975 292.257 230.797C287.978 231.596 288.191 237.887 290.793 242.406C291.326 243.333 291.984 244.238 292.748 245.097C283.737 237.628 277.408 223.561 277.408 219.057C273.995 218.084 271.759 221.203 271.445 225.058C271.182 228.286 272.496 232.559 274.854 236.397C274.822 236.366 274.791 236.339 274.759 236.309C266.284 224.517 264.941 208.639 266.813 207.261C266.898 205.57 261.119 203.204 260.198 208.684C259.875 210.603 260.06 213.306 261.025 216.521C260.999 216.46 260.971 216.403 260.945 216.341C241.318 170.317 256.847 155.854 268.574 171.063C278.878 184.425 273.837 201.248 268.032 195.743C269.514 210.938 288.123 206.093 285.492 185.038C282.785 163.381 268.949 151.497 260.115 151.497C251.281 151.497 243.322 165.472 250.591 193.422C257.859 221.372 275.53 252.709 302.034 252.709C318.37 252.709 346.726 248.233 346.193 202.685C352.288 223.877 369.74 261.449 421.335 251.927C478.06 241.461 484.417 169.43 484.828 162.304C485.239 155.176 486.268 126.258 487.295 124.222C488.322 122.185 490.469 124.006 490.495 125.441C490.322 118.929 489.7 106.292 489.7 106.292" fill="#EABD63"/>
</g>
<mask id="mask16" mask-type="alpha" maskUnits="userSpaceOnUse" x="239" y="4" width="252" height="293">
<path fill-rule="evenodd" clip-rule="evenodd" d="M261.992 30.4717C256.825 42.541 239.742 84.6305 239.742 143.453V143.453C239.742 204.488 264.342 257.826 270.612 264.721V264.721C276.883 271.616 297.206 296.363 365.119 296.363V296.363C433.032 296.363 453.355 271.616 459.625 264.721V264.721C465.896 257.826 490.495 204.488 490.495 143.453V143.453C490.495 84.6305 473.412 42.541 468.245 30.4717V30.4717C460.342 12.0133 417.702 4.36554 365.119 4.36554V4.36554C312.535 4.36554 269.896 12.0133 261.992 30.4717" fill="white"/>
</mask>
<g mask="url(#mask16)">
<path d="M393.616 113.11C392.741 114.739 393.143 117.361 394.568 118.735C397.289 121.358 402.808 122.414 403.524 124.148C407.675 113.219 396.723 107.326 393.616 113.11" fill="#EABD63"/>
</g>
<mask id="mask17" mask-type="alpha" maskUnits="userSpaceOnUse" x="239" y="4" width="252" height="293">
<path fill-rule="evenodd" clip-rule="evenodd" d="M261.992 30.4717C256.825 42.541 239.742 84.6305 239.742 143.453V143.453C239.742 204.488 264.342 257.826 270.612 264.721V264.721C276.883 271.616 297.206 296.363 365.119 296.363V296.363C433.032 296.363 453.355 271.616 459.625 264.721V264.721C465.896 257.826 490.495 204.488 490.495 143.453V143.453C490.495 84.6305 473.412 42.541 468.245 30.4717V30.4717C460.342 12.0133 417.702 4.36554 365.119 4.36554V4.36554C312.535 4.36554 269.896 12.0133 261.992 30.4717" fill="white"/>
</mask>
<g mask="url(#mask17)">
<path d="M367.675 164.034C369.881 170.074 376.092 168.669 381.334 163.247C385.888 158.538 390.097 156.579 395.031 154.778C378.364 145.162 364.858 156.315 367.675 164.034" fill="#EABD63"/>
</g>
<mask id="mask18" mask-type="alpha" maskUnits="userSpaceOnUse" x="239" y="4" width="252" height="293">
<path fill-rule="evenodd" clip-rule="evenodd" d="M261.992 30.4717C256.825 42.541 239.742 84.6305 239.742 143.453V143.453C239.742 204.488 264.342 257.826 270.612 264.721V264.721C276.883 271.616 297.206 296.363 365.119 296.363V296.363C433.032 296.363 453.355 271.616 459.625 264.721V264.721C465.896 257.826 490.495 204.488 490.495 143.453V143.453C490.495 84.6305 473.412 42.541 468.245 30.4717V30.4717C460.342 12.0133 417.702 4.36554 365.119 4.36554V4.36554C312.535 4.36554 269.896 12.0133 261.992 30.4717" fill="white"/>
</mask>
<g mask="url(#mask18)">
<path d="M433.107 102.659C434.446 106.343 436.781 110.824 444.383 108.101C451.362 105.599 455.659 104.672 463.695 107.111C458.245 99.7421 449.991 89.5451 438.912 91.5377C432.576 92.6784 431.545 98.3587 433.107 102.659" fill="#EABD63"/>
</g>
<mask id="mask19" mask-type="alpha" maskUnits="userSpaceOnUse" x="239" y="4" width="252" height="293">
<path fill-rule="evenodd" clip-rule="evenodd" d="M261.992 30.4717C256.825 42.541 239.742 84.6305 239.742 143.453V143.453C239.742 204.488 264.342 257.826 270.612 264.721V264.721C276.883 271.616 297.206 296.363 365.119 296.363V296.363C433.032 296.363 453.355 271.616 459.625 264.721V264.721C465.896 257.826 490.495 204.488 490.495 143.453V143.453C490.495 84.6305 473.412 42.541 468.245 30.4717V30.4717C460.342 12.0133 417.702 4.36554 365.119 4.36554V4.36554C312.535 4.36554 269.896 12.0133 261.992 30.4717" fill="white"/>
</mask>
<g mask="url(#mask19)">
<path d="M405 87.8013C402.697 83.231 389.278 83.8467 388.181 97.1617C382.965 91.7942 370.789 96.9375 375.087 108.118C369.016 111.714 365.116 118.261 369.796 125.671C375.539 134.758 384.483 127.236 395.456 124.413C389.96 122.263 386.148 115.603 391.056 109.554C395.966 103.504 403.197 107.114 405.373 110.795C404.573 97.936 409.182 96.1042 405 87.8013" fill="#EABD63"/>
</g>
<mask id="mask20" mask-type="alpha" maskUnits="userSpaceOnUse" x="239" y="4" width="252" height="293">
<path fill-rule="evenodd" clip-rule="evenodd" d="M261.992 30.4717C256.825 42.541 239.742 84.6305 239.742 143.453V143.453C239.742 204.488 264.342 257.826 270.612 264.721V264.721C276.883 271.616 297.206 296.363 365.119 296.363V296.363C433.032 296.363 453.355 271.616 459.625 264.721V264.721C465.896 257.826 490.495 204.488 490.495 143.453V143.453C490.495 84.6305 473.412 42.541 468.245 30.4717V30.4717C460.342 12.0133 417.702 4.36554 365.119 4.36554V4.36554C312.535 4.36554 269.896 12.0133 261.992 30.4717" fill="white"/>
</mask>
<g mask="url(#mask20)">
<path d="M317.096 215.575C318.582 213.645 319.794 209.062 318.123 204.259C316.215 205.717 311.923 206.669 310.062 208.445C307.768 210.634 307.32 213.431 309.468 216.032C311.489 218.477 314.856 218.484 317.096 215.575" fill="#EABD63"/>
</g>
<mask id="mask21" mask-type="alpha" maskUnits="userSpaceOnUse" x="239" y="4" width="252" height="293">
<path fill-rule="evenodd" clip-rule="evenodd" d="M261.992 30.4717C256.825 42.541 239.742 84.6305 239.742 143.453V143.453C239.742 204.488 264.342 257.826 270.612 264.721V264.721C276.883 271.616 297.206 296.363 365.119 296.363V296.363C433.032 296.363 453.355 271.616 459.625 264.721V264.721C465.896 257.826 490.495 204.488 490.495 143.453V143.453C490.495 84.6305 473.412 42.541 468.245 30.4717V30.4717C460.342 12.0133 417.702 4.36554 365.119 4.36554V4.36554C312.535 4.36554 269.896 12.0133 261.992 30.4717" fill="white"/>
</mask>
<g mask="url(#mask21)">
<path d="M288.563 208.767C283.44 218.923 292.855 223.864 296.731 222.492C294.699 226.337 299.46 236.216 308.134 229.353C309.883 235.255 313.597 238.411 319.631 235.667C325.667 232.922 328.739 222.453 321.089 213.946C320.31 219.906 314.547 226.45 307.545 220.214C300.542 213.979 307.103 207.31 308.134 206.394C303.703 205.983 293.686 198.612 288.563 208.767" fill="#EABD63"/>
</g>
<mask id="mask22" mask-type="alpha" maskUnits="userSpaceOnUse" x="239" y="4" width="252" height="293">
<path fill-rule="evenodd" clip-rule="evenodd" d="M261.992 30.4717C256.825 42.541 239.742 84.6305 239.742 143.453V143.453C239.742 204.488 264.342 257.826 270.612 264.721V264.721C276.883 271.616 297.206 296.363 365.119 296.363V296.363C433.032 296.363 453.355 271.616 459.625 264.721V264.721C465.896 257.826 490.495 204.488 490.495 143.453V143.453C490.495 84.6305 473.412 42.541 468.245 30.4717V30.4717C460.342 12.0133 417.702 4.36554 365.119 4.36554V4.36554C312.535 4.36554 269.896 12.0133 261.992 30.4717" fill="white"/>
</mask>
<g mask="url(#mask22)">
<path d="M342.809 256.808C345.044 255.281 346.729 253.481 347.98 251.479C348.85 255.207 350.668 258.776 354.136 262.216C356.728 258.65 357.73 255.542 357.739 252.343C360.198 255.51 363.304 257.972 367.279 259.589C372.441 261.687 379.704 261.359 380.631 254.849C368.682 254.186 357.971 253.418 348.665 220.714C348.568 243.358 341.441 254.083 328.938 254.799C331.488 261.359 338.325 259.871 342.809 256.808" fill="#EABD63"/>
</g>
<mask id="mask23" mask-type="alpha" maskUnits="userSpaceOnUse" x="239" y="4" width="252" height="293">
<path fill-rule="evenodd" clip-rule="evenodd" d="M261.992 30.4717C256.825 42.541 239.742 84.6305 239.742 143.453V143.453C239.742 204.488 264.342 257.826 270.612 264.721V264.721C276.883 271.616 297.206 296.363 365.119 296.363V296.363C433.032 296.363 453.355 271.616 459.625 264.721V264.721C465.896 257.826 490.495 204.488 490.495 143.453V143.453C490.495 84.6305 473.412 42.541 468.245 30.4717V30.4717C460.342 12.0133 417.702 4.36554 365.119 4.36554V4.36554C312.535 4.36554 269.896 12.0133 261.992 30.4717" fill="white"/>
</mask>
<g mask="url(#mask23)">
<path d="M463.68 152.635C466.08 152.513 466.826 149.432 466.952 147.383C467.077 145.332 466.547 141.771 464.427 141.782C462.304 141.793 461.093 145.336 460.93 147.415C460.767 149.492 461.279 152.757 463.68 152.635" fill="#EABD63"/>
</g>
<mask id="mask24" mask-type="alpha" maskUnits="userSpaceOnUse" x="239" y="4" width="252" height="293">
<path fill-rule="evenodd" clip-rule="evenodd" d="M261.992 30.4717C256.825 42.541 239.742 84.6305 239.742 143.453V143.453C239.742 204.488 264.342 257.826 270.612 264.721V264.721C276.883 271.616 297.206 296.363 365.119 296.363V296.363C433.032 296.363 453.355 271.616 459.625 264.721V264.721C465.896 257.826 490.495 204.488 490.495 143.453V143.453C490.495 84.6305 473.412 42.541 468.245 30.4717V30.4717C460.342 12.0133 417.702 4.36554 365.119 4.36554V4.36554C312.535 4.36554 269.896 12.0133 261.992 30.4717" fill="white"/>
</mask>
<g mask="url(#mask24)">
<path d="M342.668 120.552C342.668 117.439 340.421 114.916 337.65 114.916C334.878 114.916 332.631 117.439 332.631 120.552C332.631 123.665 334.878 126.187 337.65 126.187C340.421 126.187 342.668 123.665 342.668 120.552" fill="#EABD63"/>
</g>
<mask id="mask25" mask-type="alpha" maskUnits="userSpaceOnUse" x="239" y="4" width="252" height="293">
<path fill-rule="evenodd" clip-rule="evenodd" d="M261.992 30.4717C256.825 42.541 239.742 84.6305 239.742 143.453V143.453C239.742 204.488 264.342 257.826 270.612 264.721V264.721C276.883 271.616 297.206 296.363 365.119 296.363V296.363C433.032 296.363 453.355 271.616 459.625 264.721V264.721C465.896 257.826 490.495 204.488 490.495 143.453V143.453C490.495 84.6305 473.412 42.541 468.245 30.4717V30.4717C460.342 12.0133 417.702 4.36554 365.119 4.36554V4.36554C312.535 4.36554 269.896 12.0133 261.992 30.4717" fill="white"/>
</mask>
<g mask="url(#mask25)">
<path d="M264.655 176.176C262.428 175.041 260.311 176.577 259.923 179.605C259.536 182.633 261.025 186.008 263.252 187.143C265.477 188.278 267.595 186.744 267.982 183.716C268.37 180.688 266.881 177.311 264.655 176.176" fill="#EABD63"/>
</g>
<mask id="mask26" mask-type="alpha" maskUnits="userSpaceOnUse" x="239" y="4" width="252" height="293">
<path fill-rule="evenodd" clip-rule="evenodd" d="M261.992 30.4717C256.825 42.541 239.742 84.6305 239.742 143.453V143.453C239.742 204.488 264.342 257.826 270.612 264.721V264.721C276.883 271.616 297.206 296.363 365.119 296.363V296.363C433.032 296.363 453.355 271.616 459.625 264.721V264.721C465.896 257.826 490.495 204.488 490.495 143.453V143.453C490.495 84.6305 473.412 42.541 468.245 30.4717V30.4717C460.342 12.0133 417.702 4.36554 365.119 4.36554V4.36554C312.535 4.36554 269.896 12.0133 261.992 30.4717" fill="white"/>
</mask>
<g mask="url(#mask26)">
<path d="M365.814 275.589C309.258 275.589 269.045 254.048 253.655 233.758C256.237 238.99 259.386 248.236 261.345 251.421C271.66 264.611 314.449 287.696 365.814 287.696C417.18 287.696 459.967 264.611 470.283 251.421C472.242 248.236 475.391 238.99 477.973 233.758C462.582 254.048 422.369 275.589 365.814 275.589" fill="#EABD63"/>
</g>
<mask id="mask27" mask-type="alpha" maskUnits="userSpaceOnUse" x="239" y="4" width="252" height="293">
<path fill-rule="evenodd" clip-rule="evenodd" d="M261.992 30.4717C256.825 42.541 239.742 84.6305 239.742 143.453V143.453C239.742 204.488 264.342 257.826 270.612 264.721V264.721C276.883 271.616 297.206 296.363 365.119 296.363V296.363C433.032 296.363 453.355 271.616 459.625 264.721V264.721C465.896 257.826 490.495 204.488 490.495 143.453V143.453C490.495 84.6305 473.412 42.541 468.245 30.4717V30.4717C460.342 12.0133 417.702 4.36554 365.119 4.36554V4.36554C312.535 4.36554 269.896 12.0133 261.992 30.4717" fill="white"/>
</mask>
<g mask="url(#mask27)">
<path d="M253.286 49.3245C237.949 144.605 268.045 238.406 316.932 292.28C303.183 292.55 286.163 296.364 267.696 276.683C242.496 223.598 217.842 128.914 253.286 49.3245" fill="#7C3813"/>
</g>
<mask id="mask28" mask-type="alpha" maskUnits="userSpaceOnUse" x="242" y="33" width="249" height="255">
<path fill-rule="evenodd" clip-rule="evenodd" d="M365.174 62.6228C285.244 62.6228 252.908 46.955 257.77 33.9048V33.9048C257.77 33.9048 254.555 41.8867 252.729 47.477V47.477C250.621 61.2948 285.038 77.365 365.174 77.365V77.365C445.31 77.365 479.726 61.2948 477.619 47.477V47.477C475.792 41.8867 472.578 33.9048 472.578 33.9048V33.9048C477.441 46.955 445.105 62.6228 365.174 62.6228M242.778 78.1414C242.778 78.1414 242.952 78.2708 243.251 78.4978V78.4978C243.551 78.9002 244.041 79.2116 244.66 79.5669V79.5669C245.765 80.4058 247.345 81.6065 249.313 83.111V83.111C251.785 85.9073 254.426 90.9394 256.132 100.902V100.902C257.718 110.164 256.696 117.815 254.264 117.12V117.12C253.461 119.87 256.519 124.299 258.709 124.388V124.388C265.433 125.067 265.961 116.367 263.334 104.642V104.642C261.761 97.6087 258.526 91.3429 252.68 85.6879V85.6879C254.731 87.2604 257.058 89.0533 259.619 91.0315V91.0315C264.306 95.931 267.988 100.879 270.296 119.759V119.759C271.832 132.314 265.901 133.214 264.493 132.016V132.016C263.727 136.429 266.8 141.406 270.726 141.854V141.854C274.653 142.306 282.739 140.345 280.789 123.716V123.716C279.468 112.465 276.335 105.564 271.163 99.9949V99.9949C273.095 101.503 275.099 103.071 277.158 104.688V104.688C295.999 126.321 287.755 148.754 281.214 148.802V148.802C282.321 161.919 302.327 163.346 301.084 143.007V143.007C300.291 130.066 296.849 121.734 288.916 113.972V113.972C291.424 115.962 293.984 118.006 296.582 120.084V120.084C305.273 126.823 311.249 168.508 294.96 165.996V165.996C295.357 170.978 300.392 177.698 307.859 176.988V176.988C322.21 175.628 322.672 160.413 319.415 150.7V150.7C317.324 144.46 314.726 137.548 309.127 130.861V130.861C313.361 134.952 317.12 139.155 320.444 143.423V143.423C326.158 152.086 331.301 164.955 324.182 182.11V182.11C322.282 182.11 320.092 180.657 317.464 188.792V188.792C313.666 187.193 295.114 173.685 288.981 200.264V200.264C294.531 197.214 298.475 196.925 303.44 200.264V200.264C308.407 203.606 319.341 203.718 322.117 194.422V194.422C321.836 201.569 320.092 205.493 325.788 214.063V214.063C331.486 222.632 330.398 227.603 329.96 230.362V230.362C335.072 225.426 340.416 216.474 336.326 205.145V205.145C332.238 193.816 329.878 195.326 329.878 195.326V195.326C330.9 190.242 330.462 188.064 328.272 184.869V184.869C329.411 180.085 332.378 168.054 328.328 154.946V154.946C338.001 171.242 341.999 187.77 342.325 201.777V201.777C342.858 224.606 334.347 238.826 322.461 245.26V245.26C307.819 247.359 293.152 237.855 292.346 230.657V230.657C288.068 231.458 288.28 237.767 290.881 242.298V242.298C291.414 243.226 292.071 244.134 292.836 244.996V244.996C283.828 237.506 277.502 223.401 277.502 218.887V218.887C274.091 217.91 271.855 221.038 271.541 224.903V224.903C271.28 228.14 272.593 232.424 274.949 236.272V236.272C274.917 236.242 274.886 236.214 274.854 236.184V236.184C266.382 224.361 265.041 208.441 266.912 207.059V207.059C266.997 205.363 261.22 202.991 260.299 208.485V208.485C259.977 210.409 260.162 213.119 261.128 216.344V216.344C261.1 216.282 261.072 216.224 261.046 216.162V216.162C241.428 170.015 256.951 155.514 268.672 170.763V170.763C278.971 184.162 273.933 201.03 268.13 195.51V195.51C269.611 210.745 288.214 205.887 285.583 184.775V184.775C282.877 163.062 269.048 151.144 260.217 151.144V151.144C251.386 151.144 243.431 165.158 250.696 193.183V193.183C257.962 221.207 275.625 252.628 302.116 252.628V252.628C318.445 252.628 346.79 248.141 346.256 202.47V202.47C352.35 223.718 369.793 261.391 421.366 251.845V251.845C478.067 241.35 484.421 169.127 484.831 161.98V161.98C485.242 154.833 486.268 125.838 487.296 123.796V123.796C488.318 121.766 490.446 123.561 490.495 124.995V124.995C490.321 118.458 489.7 105.819 489.7 105.819V105.819C488.118 100.519 485.388 98.5671 483.884 102.01V102.01C483.41 103.097 483.085 105.053 482.871 107.568V107.568C482.019 95.1414 480.399 83.5189 481.823 81.6614V81.6614C479.662 77.2707 473.83 80.1722 473.519 91.0085V91.0085C473.233 101.007 474.541 102.941 476.556 108.966V108.966C471.816 98.5353 467.56 84.292 470.606 80.8927V80.8927C466.972 77.6238 460.587 85.666 463.135 94.3453V94.3453C464.431 98.7568 466.381 105.13 470.071 109.665V109.665C456.639 109.725 445.008 117.982 439.338 137.694V137.694C433.668 157.404 443.788 173.845 452.995 174.218V174.218C462.2 174.592 472.7 164.658 475.234 142.548V142.548C476.369 132.663 473.495 127.352 470.146 126.384V126.384C466.765 125.408 461.09 128.795 461.919 137.712V137.712C464.014 134.24 471.507 134.66 470.655 146.286V146.286C470.034 154.767 465.3 161.403 459.57 161.869V161.869C455.49 162.202 449.801 158.244 448.579 146.832V146.832C446.954 131.653 453.872 117.811 467.838 115.633V115.633C479.899 113.753 482.098 133.919 483.053 141.354V141.354C483.129 143.55 483.19 145.431 483.217 146.832V146.832C483.395 156.059 482.984 159.326 482.778 162.593V162.593C482.712 163.632 482.224 171.828 479.705 182.849V182.849C481.262 172.725 479.862 165.846 477.487 163.728V163.728C473.106 159.821 469.487 166.721 470.065 169.986V169.986C475.052 165.393 477.842 189.363 470.456 209.514V209.514C470.238 209.961 470.012 210.408 469.785 210.856V210.856C472.041 204.217 472.379 198.688 472.603 195.769V195.769C473.369 185.738 472.098 179.863 467.541 177.851V177.851C464.047 176.307 459.891 178.272 458.964 181.57V181.57C466.512 184.044 464.725 220.277 442.426 241.65V241.65C442.27 241.745 442.117 241.838 441.962 241.929V241.929C444.481 239.322 446.768 235.924 448.617 231.456V231.456C455.923 213.806 444.625 213.926 441.245 214.384V214.384C441.241 227.59 429.91 242.766 419.283 248.697V248.697C427.196 243.487 432.728 227.288 422.781 227.239V227.239C423.693 239.563 408.579 246.408 395.159 247.476V247.476C405.233 246.09 413.804 239.391 408.685 232.759V232.759C401.224 242.144 373.555 238.755 359.216 222.424V222.424C352.659 212.021 348.951 201.213 347.048 194.532V194.532C353.899 206.531 363.742 225.728 391.741 225.728V225.728C422.77 225.728 434.624 198.145 443.671 196.44V196.44C446.732 195.863 447.251 199.746 445.844 201.428V201.428C452.831 200.339 456.408 194.823 455.511 188.545V188.545C454.952 184.636 448.772 180.352 441.475 185.734V185.734C439.651 187.081 436.026 191.196 434.476 194.288V194.288C439.638 179.152 438.303 159.248 422.066 139.58V139.58C423.342 137.019 424.019 134.834 420.975 129.452V129.452C423.173 124.912 432.822 100.534 411.675 88.5917V88.5917C410.661 95.1502 409.352 102.355 408.336 107.4V107.4C407.361 112.25 405.292 123.322 411.45 129.996V129.996C408.255 127.147 401.548 124.76 393.75 128.947V128.947C383.262 134.582 377.517 135.338 374.81 136.01V136.01C379.546 142.736 394.74 155.515 411.492 140.551V140.551C413.535 143.24 415.904 145.09 418.27 143.072V143.072C426.955 153.911 430.997 163.928 432.204 173.219V173.219C428.688 161.346 418.532 153.467 404.573 155.812V155.812C392.282 157.878 387.974 167.55 393.139 176.963V176.963C399.779 168.509 415.171 168.583 417.958 183.098V183.098C420.648 197.114 414.477 212.823 398.46 216.909V216.909C401.293 214.884 406.3 209.478 407.727 205.627V205.627C414.51 187.326 396.663 176.347 387.363 188.677V188.677C394.118 187.834 397.637 200.527 390.616 209.185V209.185C383.595 217.845 375.89 216.673 369.336 213.758V213.758C360.854 208.954 354.58 199.394 348.461 187.92V187.92C352.88 193.562 358.442 198.186 366.032 201.367V201.367C380.613 207.48 390.559 192.002 372.284 180.13V180.13C362.843 190.499 341.72 172.571 335.647 162.961V162.961C334.586 160.986 333.492 159.012 332.364 157.048V157.048C336.993 162.406 343.862 166.165 347.394 166.541V166.541C355.301 167.383 362.217 163.266 358.828 153.344V153.344C339.642 154.246 335.307 144.86 319.553 134.119V134.119C340.117 143.807 362.708 137.71 363.807 114.579V114.579C364.533 99.2788 353.448 88.8033 341.671 90.9844V90.9844C330.194 93.1106 324.838 104.32 328.021 113.491V113.491C336.108 101.759 350.705 108.348 350.146 119.362V119.362C349.339 135.234 334.464 134.831 324.861 131.603V131.603C317.661 129.183 306.403 122.314 294.128 113.929V113.929C301.448 116.928 308.126 116.69 312.961 115.063V115.063C328.037 109.988 325.913 90.6247 312.123 89.0029V89.0029C311.765 105.221 290.437 108.583 279.862 103.875V103.875C278.6 102.962 277.34 102.047 276.083 101.129V101.129C287.164 104.779 301.967 102.271 301.603 91.0721V91.0721C301.399 84.746 294.395 85.5794 291.35 87.2001V87.2001C290.814 98.3719 274.018 96.9431 267.288 94.6436V94.6436C265.891 93.6052 264.511 92.5755 263.149 91.5557V91.5557C268.48 94.1052 276.487 94.9485 279.352 90.6247V90.6247C283.007 85.1068 280.427 82.1548 273.084 82.5145V82.5145C274.516 88.2824 259.514 87.3778 254.466 85.0278V85.0278C250.291 81.8796 246.451 78.9737 243.118 76.479V76.479C242.922 77.422 242.778 78.1414 242.778 78.1414M388.226 96.6635C383.012 91.2826 370.842 96.4398 375.137 107.649V107.649C369.069 111.255 365.171 117.82 369.849 125.249V125.249C375.589 134.36 384.53 126.818 395.497 123.988V123.988C390.003 121.832 386.194 115.154 391.101 109.089V109.089C396.008 103.024 403.234 106.642 405.412 110.333V110.333C404.611 97.4398 409.218 95.6042 405.038 87.2791V87.2791C404.23 85.6682 402.05 84.6999 399.515 84.6999V84.6999C394.832 84.6999 388.937 88.0028 388.226 96.6635M438.935 91.0249C432.601 92.1676 431.571 97.8642 433.133 102.176V102.176C434.471 105.87 436.805 110.363 444.403 107.631V107.631C451.38 105.123 455.674 104.195 463.707 106.64V106.64C458.729 99.8885 451.412 90.7716 441.741 90.7705V90.7705C440.826 90.7705 439.891 90.8517 438.935 91.0249M393.658 112.655C392.783 114.29 393.187 116.916 394.611 118.295V118.295C397.329 120.925 402.846 121.984 403.563 123.722V123.722C406.598 115.702 401.549 110.386 397.405 110.386V110.386C395.887 110.386 394.491 111.1 393.658 112.655M332.702 120.116C332.702 123.238 334.948 125.767 337.717 125.767V125.767C340.488 125.767 342.733 123.238 342.733 120.116V120.116C342.733 116.996 340.488 114.466 337.717 114.466V114.466C334.948 114.466 332.702 116.996 332.702 120.116M464.437 141.404C462.316 141.414 461.106 144.968 460.943 147.052V147.052C460.78 149.135 461.292 152.409 463.692 152.286V152.286C466.091 152.163 466.837 149.075 466.962 147.02V147.02C467.087 144.966 466.559 141.404 464.447 141.404V141.404C464.444 141.404 464.44 141.404 464.437 141.404M367.729 163.715C369.936 169.773 376.143 168.362 381.382 162.926V162.926C385.933 158.204 390.141 156.24 395.073 154.435V154.435C390.477 151.776 386.123 150.7 382.285 150.7V150.7C372.208 150.7 365.69 158.111 367.729 163.715M260.025 179.328C259.638 182.365 261.128 185.749 263.352 186.888V186.888C265.577 188.025 267.693 186.487 268.081 183.45V183.45C268.468 180.413 266.98 177.029 264.754 175.89V175.89C264.257 175.636 263.765 175.515 263.296 175.515V175.515C261.669 175.515 260.326 176.971 260.025 179.328M288.652 208.569C283.531 218.752 292.942 223.706 296.817 222.33V222.33C294.785 226.186 299.545 236.091 308.214 229.21V229.21C309.963 235.128 313.675 238.293 319.708 235.541V235.541C325.74 232.788 328.811 222.291 321.165 213.761V213.761C320.386 219.737 314.626 226.3 307.625 220.047V220.047C300.626 213.793 307.185 207.107 308.214 206.19V206.19C305.572 205.943 300.942 203.214 296.549 203.214V203.214C293.578 203.212 290.718 204.46 288.652 208.569M310.142 208.246C307.849 210.441 307.401 213.246 309.549 215.853V215.853C311.569 218.306 314.933 218.311 317.173 215.394V215.394C318.658 213.46 319.868 208.865 318.199 204.049V204.049C316.292 205.511 312.002 206.466 310.142 208.246M329.009 254.725C331.558 261.301 338.393 259.81 342.875 256.739V256.739C345.109 255.207 346.791 253.403 348.043 251.394V251.394C348.912 255.133 350.73 258.711 354.195 262.161V262.161C356.787 258.585 357.789 255.468 357.798 252.261V252.261C360.255 255.438 363.361 257.905 367.334 259.527V259.527C372.493 261.63 379.753 261.301 380.679 254.775V254.775C368.736 254.108 358.029 253.34 348.727 220.548V220.548C348.631 243.251 341.507 254.007 329.009 254.725M365.87 275.57C309.339 275.57 269.143 253.97 253.759 233.627V233.627C256.34 238.872 259.489 248.144 261.446 251.337V251.337C271.757 264.562 314.526 287.709 365.87 287.709V287.709C417.211 287.709 459.981 264.562 470.291 251.337V251.337C472.251 248.144 475.398 238.872 477.98 233.627V233.627C462.594 253.97 422.399 275.57 365.87 275.57" fill="white"/>
</mask>
<g mask="url(#mask28)">
<path d="M301.668 48.7545C296.612 127.121 321.483 178.357 361.113 178.357C400.743 178.357 433.882 153.706 432.488 44.5206C394.854 58.4547 334.517 58.9515 301.668 48.7545" fill="#EAEAEA"/>
</g>
</svg>
