<svg width="40" height="40" viewBox="0 0 40 40" fill="none" xmlns="http://www.w3.org/2000/svg">
<circle cx="20" cy="20" r="20" fill="white"/>
<path d="M25.5481 9.00454L22.6699 9C19.4362 9 17.3465 11.1057 17.3465 14.3648V16.8383H14.4526C14.2025 16.8383 14 17.0374 14 17.283V20.8669C14 21.1125 14.2027 21.3114 14.4526 21.3114H17.3465V30.3546C17.3465 30.6002 17.549 30.7991 17.7991 30.7991H21.5749C21.825 30.7991 22.0275 30.6 22.0275 30.3546V21.3114H25.4112C25.6613 21.3114 25.8638 21.1125 25.8638 20.8669L25.8652 17.283C25.8652 17.1651 25.8174 17.0522 25.7326 16.9687C25.6479 16.8853 25.5324 16.8383 25.4123 16.8383H22.0275V14.7415C22.0275 13.7337 22.272 13.222 23.6087 13.222L25.5477 13.2213C25.7975 13.2213 26 13.0222 26 12.7769V9.44903C26 9.20388 25.7977 9.00499 25.5481 9.00454Z" fill="#FF9E27"/>
</svg>
