<svg width="38" height="39" viewBox="0 0 38 39" fill="none" xmlns="http://www.w3.org/2000/svg">
<path fill-rule="evenodd" clip-rule="evenodd" d="M15.7876 13.5217C17.8553 13.5217 19.0459 14.9071 19.0547 17.3233L19.0732 32.9559C19.0756 33.0255 19.1157 34.7856 18.012 35.971C17.3762 36.6537 16.4941 37 15.3905 37C14.4579 37 13.7087 36.6872 13.1636 36.0707C12.0262 34.7839 12.1844 32.6464 12.1916 32.556L12.191 17.1191C12.2657 15.1322 13.879 13.5217 15.7876 13.5217ZM14.4796 20.4437L14.4667 29.6187C14.4667 29.619 14.4667 29.6196 14.4667 29.6205C14.4661 29.6588 14.4566 30.2336 14.8052 30.611C15.0174 30.8402 15.3253 30.9564 15.7201 30.9564C16.0529 30.9564 17.1407 30.8109 17.1407 28.9311V21.4468C17.1028 20.7341 16.7475 19.5126 15.6558 19.5126L15.5954 19.5134C15.5896 19.5132 15.5836 19.513 15.5772 19.5127C15.5578 19.5119 15.5347 19.5109 15.5021 19.5109C15.1951 19.5109 14.4796 19.6013 14.4796 20.4437Z" fill="white"/>
<mask id="mask0" mask-type="alpha" maskUnits="userSpaceOnUse" x="1" y="15" width="12" height="22">
<path fill-rule="evenodd" clip-rule="evenodd" d="M1.45691 15.217H12.1452V37H1.45691V15.217Z" fill="white"/>
</mask>
<g mask="url(#mask0)">
<path d="M12.0529 15.2371C11.9956 15.2075 11.9264 15.2108 11.8726 15.2454L7.13105 18.3019L2.90506 21.9152C2.86752 21.9475 2.84608 21.9935 2.84608 22.0422L2.85339 25.5996C2.85339 25.6638 2.89092 25.7215 2.95006 25.7502C3.00953 25.7791 3.07988 25.7716 3.1335 25.7347L4.53128 24.7295L4.54184 31.4102C4.20941 30.7899 3.6466 30.438 2.93511 30.438H2.92277C1.60915 30.7388 1.45691 32.2588 1.45691 33.3759C1.45691 34.1825 1.63563 36.8261 3.93434 36.9917C4.00875 36.9975 4.08138 37 4.15287 37C5.06111 37 5.66536 36.5724 6.01192 36.2141C6.60122 35.6045 6.82755 34.8202 6.79067 34.3241V23.4567L8.61494 22.2663V31.6507L7.61637 32.145C7.5582 32.174 7.52148 32.2316 7.52099 32.295L7.50702 36.7579C7.50653 36.8023 7.52489 36.8451 7.55788 36.8772C7.5907 36.9092 7.6357 36.9268 7.68233 36.9268H11.7387C11.8357 36.9268 11.9143 36.8509 11.9143 36.7579V31.1439C11.9143 31.0848 11.8818 31.0295 11.8289 30.9991C11.7761 30.9694 11.7103 30.9671 11.6563 30.9949L10.7301 31.472L10.7232 21.1812L12.0238 20.6861C12.0905 20.6614 12.135 20.5987 12.135 20.5296L12.1452 15.3863C12.1452 15.3236 12.1103 15.2667 12.0529 15.2371" fill="white"/>
</g>
<path d="M28.1806 15.7123C25.9534 14.4616 23.81 13.8272 20.7809 13.522C20.7366 13.5195 20.6914 13.5335 20.658 13.566C20.6253 13.5975 20.6058 13.644 20.6058 13.6911V23.2159C20.6058 23.2962 20.6596 23.366 20.7335 23.3826L22.2655 23.7201C22.313 23.7308 22.3611 23.7176 22.3985 23.6861C22.4359 23.6538 22.4576 23.6048 22.4576 23.5542V18.5643L23.4149 18.9722V30.1731L22.6077 30.4733C22.544 30.4966 22.5012 30.5612 22.5012 30.6333L22.4817 36.83C22.4817 36.8747 22.4981 36.9178 22.5284 36.9501C22.5579 36.9825 22.5993 37 22.6411 37H26.6384C26.7263 37 26.7979 36.9237 26.7979 36.83V30.7718C26.7979 30.7038 26.7598 30.6423 26.7015 30.6158L25.9043 30.2494V19.4225L26.6059 19.8414V24.7111C26.6059 24.7816 26.6462 24.8454 26.7084 24.8703L28.0491 25.4153C28.0989 25.4351 28.1542 25.4269 28.197 25.396C28.2397 25.3645 28.2654 25.3124 28.2654 25.256V15.8632C28.2654 15.8002 28.2328 15.742 28.1806 15.7123" fill="white"/>
<path fill-rule="evenodd" clip-rule="evenodd" d="M31.5606 18.2853C31.7531 18.2409 31.9599 18.2174 32.165 18.2174C33.0515 18.2174 33.9411 18.6524 34.738 19.4746C35.8859 20.659 36.7066 22.546 36.6908 23.9608V34.2462C36.6908 36.9224 33.9584 37 33.6472 37L33.5965 36.9992C31.7817 36.9992 29.8266 35.0053 29.7974 33.12V20.4279C29.7989 20.4011 29.909 18.5416 31.5606 18.2853ZM33.3621 31.4278C34.3118 31.5452 34.3499 29.853 34.3499 29.8368L34.3443 26.4146C34.3444 26.4134 34.3447 26.4108 34.3452 26.4068C34.3607 26.2723 34.5549 24.5895 33.6962 23.8969C33.3454 23.61 33.0357 23.4589 32.7979 23.4589C32.2927 23.4589 32.2094 24.1613 32.1966 24.463L32.2022 29.7997C32.1983 29.8692 32.1294 31.2621 33.3621 31.4278Z" fill="white"/>
<mask id="mask1" mask-type="alpha" maskUnits="userSpaceOnUse" x="2" y="1" width="9" height="19">
<path fill-rule="evenodd" clip-rule="evenodd" d="M2.30078 1.78606H10.522V19.6835H2.30078V1.78606Z" fill="white"/>
</mask>
<g mask="url(#mask1)">
<path fill-rule="evenodd" clip-rule="evenodd" d="M2.52627 19.6835L2.72577 18.8901V2.51105L2.30078 1.78604H6.69191C6.96181 1.79512 7.20744 1.92284 7.36952 2.13868C7.48463 2.29192 7.60901 2.55973 7.5476 2.96825L6.77645 5.51533L6.7893 5.58154C6.99523 6.64604 7.53518 9.43479 8.68305 10.1407C8.82486 9.92329 9.19801 9.29392 9.19801 8.69742V2.52091L8.91382 1.83394H10.522L10.3063 2.47067V7.92529C10.3068 7.93782 10.3353 9.42571 9.9763 10.8657C9.1306 14.2954 6.4043 16.5669 6.29962 16.5669H6.2992L6.19395 16.5628L6.17924 14.2715H6.69234C7.5059 13.5911 8.31747 12.2647 8.41543 11.4647C7.25 10.633 6.49027 8.8267 6.22322 7.34209L4.21666 13.9683V17.5224L4.65793 18.0984L2.52627 19.6835ZM6.07813 3.08862L3.56804 3.0894V12.7474L6.39159 4.12588C6.49655 3.74601 6.50055 3.45268 6.40144 3.28302C6.33861 3.17595 6.23308 3.11241 6.07813 3.08862Z" fill="white"/>
</g>
<path d="M15.8573 11.9099L16.0101 11.9565L16.0019 10.2085L15.9091 10.1868C13.9201 9.73893 12.9121 8.2616 12.9121 5.797C12.9121 4.67073 13.0137 3.87007 13.2149 3.41558C13.4402 2.89546 13.891 2.58487 14.4372 2.58487H14.438C14.732 2.59072 14.9768 2.76547 14.9791 2.768L15.1658 2.90273V1.00917L13.5632 1C11.4143 1 11.4143 4.68243 11.4143 5.89267C11.4143 8.85668 13.034 11.0501 15.8573 11.9099" fill="white"/>
<path d="M22.1085 11.939L21.8038 10.9934V6.28805C21.7988 5.82156 22.1691 5.18225 22.519 5.01965C22.8341 5.49719 24.4384 8.01935 24.4326 9.81406L24.4258 11.7746L24.0767 12.2144L26.3615 12.7391L25.968 12.0605L25.973 9.77894C26.0234 8.32145 24.9865 6.33504 24.9437 6.25472L23.6841 3.66492L26.7335 1L23.5834 1.00081L23.731 1.20097C23.7516 1.22844 24.2184 1.89004 23.2531 2.8126C22.8706 3.18055 22.2494 3.59728 21.9369 3.79841L21.9455 1.48941L22.222 1H19.9765L20.4314 1.45868V9.54692C19.8038 9.3523 17.1882 8.38941 16.8501 5.81734C16.7316 4.9273 16.8741 3.72817 17.4604 3.05649C17.8086 2.65765 18.2653 2.477 18.8603 2.5292C19.2348 2.55846 19.3681 2.80479 19.3732 2.81422L19.6104 2.75683L19.5968 1.05723L17.7285 1.04862C17.3197 1.04862 16.794 1.33283 16.3552 1.7907C15.9114 2.25376 15.1774 3.30119 15.249 5.11461C15.3557 7.83871 16.2161 8.7211 17.6098 9.93454C19.0112 11.1473 20.4382 11.4872 20.498 11.5016L20.6089 11.5273L22.1085 11.939Z" fill="white"/>
<path d="M36.3725 16.3626L33.7909 14.2799L33.7967 6.08771L35.8566 6.51173L35.7939 5.46792L33.8535 5.14497V2.59103H35.6484L36.1963 3.19976V1H32.0952L32.4925 1.77565V14.6096L32.1689 14.9563L36.6816 19L36.691 16.3626H36.3725Z" fill="white"/>
<path fill-rule="evenodd" clip-rule="evenodd" d="M31.3263 7.86277L31.3226 8.32414C31.3153 10.0224 31.3015 13.1842 29.1652 13.5042C29.165 13.5042 29.1637 13.5043 29.1615 13.5046C29.1412 13.5075 29.0393 13.5217 28.8867 13.5217C28.4294 13.5217 27.3013 13.3844 26.7124 12.11C25.9737 10.5035 25.9363 8.06958 25.9796 6.76066L25.9816 6.6841C25.9816 5.53423 26.1726 1.78261 28.6283 1.78261H28.6788C29.2897 1.78261 29.8031 2.00761 30.2063 2.45215C31.3643 3.72816 31.3386 6.52126 31.3263 7.86277ZM28.6334 11.8083C28.665 11.81 28.6971 11.8107 28.7278 11.8107C29.7637 11.8107 29.7813 10.8707 29.7813 10.8307L29.7755 4.03777C29.7755 3.47845 29.0241 3.1975 28.6034 3.1975C28.5677 3.1975 28.5334 3.19917 28.5018 3.20311C27.7776 3.29651 27.4703 3.72179 27.474 4.62604V10.6544C27.4718 10.7039 27.4403 11.7389 28.6334 11.8083Z" fill="white"/>
</svg>
