<svg width="36" height="36" viewBox="0 0 36 36" fill="none" xmlns="http://www.w3.org/2000/svg">
<path fill-rule="evenodd" clip-rule="evenodd" d="M13.4667 28.6187L13.4796 19.4437C13.4796 18.6013 14.1951 18.5109 14.5021 18.5109C14.5455 18.5109 14.5721 18.5126 14.5955 18.5134L14.6558 18.5126C15.7475 18.5126 16.1028 19.7341 16.1407 20.4468V27.9311C16.1407 29.8109 15.0529 29.9564 14.7201 29.9564C14.3253 29.9564 14.0174 29.8402 13.8052 29.611C13.4483 29.2246 13.4667 28.6312 13.4667 28.6187V28.6187ZM18.0547 16.3233C18.0459 13.9071 16.8553 12.5217 14.7876 12.5217C12.879 12.5217 11.2657 14.1322 11.191 16.1191L11.1916 31.556C11.1844 31.6464 11.0262 33.7839 12.1636 35.0707C12.7087 35.6872 13.4579 36 14.3905 36C15.4941 36 16.3762 35.6537 17.012 34.971C18.1157 33.7856 18.0756 32.0255 18.0732 31.9559L18.0547 16.3233Z" fill="white"/>
<mask id="mask0" mask-type="alpha" maskUnits="userSpaceOnUse" x="0" y="14" width="12" height="22">
<path fill-rule="evenodd" clip-rule="evenodd" d="M0.45694 14.217H11.1452V36H0.45694V14.217Z" fill="white"/>
</mask>
<g mask="url(#mask0)">
<path fill-rule="evenodd" clip-rule="evenodd" d="M11.053 14.2371C10.9956 14.2075 10.9264 14.2108 10.8726 14.2454L6.13108 17.3019L1.90509 20.9152C1.86755 20.9475 1.84611 20.9935 1.84611 21.0422L1.85342 24.5996C1.85342 24.6638 1.89095 24.7215 1.95009 24.7502C2.00956 24.7791 2.07991 24.7716 2.13353 24.7347L3.53131 23.7295L3.54187 30.4102C3.20944 29.7899 2.64663 29.438 1.93514 29.438H1.9228C0.60918 29.7389 0.45694 31.2588 0.45694 32.3759C0.45694 33.1825 0.635663 35.8261 2.93437 35.9917C3.00878 35.9975 3.08141 36 3.1529 36C4.06114 36 4.66539 35.5724 5.01195 35.2141C5.60125 34.6045 5.82758 33.8202 5.7907 33.3241V22.4567L7.61497 21.2663V30.6507L6.6164 31.145C6.55823 31.174 6.52151 31.2316 6.52102 31.295L6.50705 35.7579C6.50656 35.8023 6.52492 35.8451 6.55791 35.8772C6.59073 35.9093 6.63573 35.9268 6.68236 35.9268H10.7387C10.8357 35.9268 10.9144 35.8509 10.9144 35.7579V30.1439C10.9144 30.0848 10.8819 30.0295 10.8289 29.9991C10.7761 29.9694 10.7103 29.9671 10.6564 29.9949L9.73008 30.472L9.72326 20.1812L11.0239 19.6861C11.0905 19.6614 11.135 19.5987 11.135 19.5296L11.1452 14.3863C11.1452 14.3236 11.1103 14.2667 11.053 14.2371" fill="white"/>
</g>
<path fill-rule="evenodd" clip-rule="evenodd" d="M27.1806 14.7123C24.9534 13.4616 22.81 12.8272 19.7809 12.522C19.7366 12.5195 19.6914 12.5335 19.658 12.566C19.6253 12.5975 19.6058 12.644 19.6058 12.6911V22.2159C19.6058 22.2962 19.6596 22.366 19.7335 22.3826L21.2655 22.7201C21.313 22.7308 21.3611 22.7176 21.3985 22.686C21.4359 22.6537 21.4576 22.6047 21.4576 22.5542V17.5643L22.4149 17.9722V29.1731L21.6077 29.4732C21.544 29.4966 21.5012 29.5612 21.5012 29.6333L21.4817 35.83C21.4817 35.8747 21.4981 35.9178 21.5284 35.9501C21.5579 35.9825 21.5993 36 21.6411 36H25.6384C25.7263 36 25.7979 35.9237 25.7979 35.83V29.7718C25.7979 29.7038 25.7598 29.6423 25.7015 29.6158L24.9043 29.2494V18.4225L25.6059 18.8414V23.7111C25.6059 23.7816 25.6462 23.8454 25.7084 23.8703L27.0491 24.4153C27.0989 24.4351 27.1542 24.4269 27.197 24.396C27.2397 24.3645 27.2654 24.3124 27.2654 24.256V14.8632C27.2654 14.8002 27.2328 14.742 27.1806 14.7123" fill="white"/>
<path fill-rule="evenodd" clip-rule="evenodd" d="M33.3498 28.8368C33.3498 28.853 33.3118 30.5452 32.3621 30.4278C31.1294 30.2621 31.1983 28.8692 31.2022 28.7997L31.1966 23.463C31.2094 23.1613 31.2927 22.4589 31.7979 22.4589C32.0357 22.4589 32.3454 22.61 32.6962 22.8969C33.5804 23.6101 33.3482 25.3733 33.3443 25.4146L33.3498 28.8368ZM31.165 17.2174C30.9599 17.2174 30.7531 17.2409 30.5606 17.2853C28.909 17.5416 28.7988 19.4011 28.7973 19.4279V32.12C28.8265 34.0053 30.7817 35.9992 32.5964 35.9992L32.6471 36C32.9584 36 35.6907 35.9224 35.6907 33.2462V22.9608C35.7065 21.546 34.8858 19.659 33.738 18.4746C32.9411 17.6524 32.0515 17.2174 31.165 17.2174V17.2174Z" fill="white"/>
<mask id="mask1" mask-type="alpha" maskUnits="userSpaceOnUse" x="1" y="0" width="9" height="19">
<path fill-rule="evenodd" clip-rule="evenodd" d="M1.30072 0.786053H9.5219V18.6835H1.30072V0.786053Z" fill="white"/>
</mask>
<g mask="url(#mask1)">
<path fill-rule="evenodd" clip-rule="evenodd" d="M2.56796 2.08939L5.07806 2.08861C5.233 2.1124 5.33853 2.17595 5.40137 2.28301C5.50048 2.45268 5.49648 2.746 5.39151 3.12588L2.56796 11.7474V2.08939ZM1.72571 17.8901L1.52621 18.6835L3.65787 17.0984L3.2166 16.5224V12.9683L5.22316 6.34209C5.49021 7.8267 6.24993 9.63296 7.41537 10.4647C7.31741 11.2647 6.50584 12.5911 5.69228 13.2715H5.17918L5.19389 15.5628L5.29913 15.5669H5.29956C5.40424 15.5669 8.13054 13.2954 8.97624 9.86571C9.33525 8.42571 9.30669 6.93781 9.30626 6.92529V1.47066L9.5219 0.833933H7.91376L8.19795 1.52091V7.69741C8.19795 8.29391 7.8248 8.92329 7.68299 9.1407C6.53512 8.43478 5.99517 5.64604 5.78924 4.58153L5.77639 4.51532L6.54754 1.96825C6.60895 1.55972 6.48456 1.29192 6.36946 1.13868C6.20738 0.922837 5.96175 0.795116 5.69185 0.786037H1.30072L1.72571 1.51105V17.8901Z" fill="white"/>
</g>
<path fill-rule="evenodd" clip-rule="evenodd" d="M14.8574 10.9099L15.0101 10.9565L15.0019 9.20845L14.9091 9.18678C12.9202 8.73893 11.9121 7.2616 11.9121 4.797C11.9121 3.67073 12.0137 2.87007 12.2149 2.41558C12.4402 1.89546 12.891 1.58487 13.4372 1.58487H13.438C13.7321 1.59072 13.9769 1.76547 13.9792 1.768L14.1658 1.90273V0.00917208L12.5632 0C10.4143 0 10.4143 3.68243 10.4143 4.89267C10.4143 7.85668 12.034 10.0501 14.8574 10.9099" fill="white"/>
<path fill-rule="evenodd" clip-rule="evenodd" d="M21.1085 10.939L20.8038 9.99336V5.28805C20.7988 4.82156 21.1691 4.18225 21.519 4.01965C21.8341 4.49719 23.4384 7.01935 23.4326 8.81406L23.4258 10.7746L23.0767 11.2144L25.3615 11.7391L24.968 11.0605L24.973 8.77894C25.0234 7.32145 23.9865 5.33504 23.9437 5.25472L22.6841 2.66492L25.7335 0L22.5834 0.00081297L22.731 0.200966C22.7516 0.228445 23.2184 0.89004 22.2531 1.8126C21.8706 2.18055 21.2494 2.59728 20.9369 2.79841L20.9455 0.489408L21.222 0H18.9765L19.4314 0.458678V8.54692C18.8038 8.3523 16.1882 7.38941 15.8501 4.81734C15.7316 3.9273 15.8741 2.72817 16.4604 2.05649C16.8086 1.65765 17.2653 1.477 17.8603 1.5292C18.2348 1.55846 18.3681 1.80479 18.3732 1.81422L18.6104 1.75683L18.5968 0.0572331L16.7285 0.0486156C16.3197 0.0486156 15.794 0.33283 15.3552 0.790695C14.9114 1.25376 14.1774 2.30119 14.249 4.11461C14.3557 6.83871 15.2161 7.72111 16.6098 8.93454C18.0112 10.1473 19.4382 10.4872 19.498 10.5016L19.6089 10.5273L21.1085 10.939Z" fill="white"/>
<path fill-rule="evenodd" clip-rule="evenodd" d="M35.3725 15.3626L32.7909 13.2799L32.7967 5.08771L34.8566 5.51173L34.7938 4.46792L32.8535 4.14497V1.59103H34.6484L35.1963 2.19976V0H31.0952L31.4925 0.775651V13.6096L31.1689 13.9563L35.6816 18L35.6909 15.3626H35.3725Z" fill="white"/>
<path fill-rule="evenodd" clip-rule="evenodd" d="M27.7278 10.8107C27.6971 10.8107 27.665 10.81 27.6334 10.8083C26.4403 10.7389 26.4718 9.70393 26.474 9.65435V3.62604C26.4703 2.72179 26.7776 2.29651 27.5018 2.20311C27.5334 2.19917 27.5677 2.1975 27.6034 2.1975C28.0241 2.1975 28.7755 2.47845 28.7755 3.03777L28.7813 9.83068C28.7813 9.87071 28.7636 10.8107 27.7278 10.8107M30.3226 7.32414L30.3263 6.86277C30.3386 5.52126 30.3643 2.72816 29.2063 1.45215C28.8031 1.00761 28.2897 0.782608 27.6788 0.782608H27.6283C25.1726 0.782608 24.9816 4.53423 24.9816 5.6841L24.9796 5.76066C24.9363 7.06958 24.9737 9.50349 25.7124 11.11C26.3013 12.3844 27.4294 12.5217 27.8867 12.5217C28.0562 12.5217 28.1631 12.5042 28.1652 12.5042C30.3015 12.1842 30.3153 9.02241 30.3226 7.32414" fill="white"/>
</svg>
