<svg width="61" height="62" viewBox="0 0 61 62" fill="none" xmlns="http://www.w3.org/2000/svg">
<circle cx="30" cy="31" r="30" stroke="#ED5E42" stroke-width="2"/>
<circle cx="30" cy="31" r="27" stroke="#ED5E42"/>
<path d="M37.6387 44H22.3281V43.0508L31.0645 32.9785C32.4941 31.3027 33.5547 29.8145 34.2461 28.5137C34.9492 27.2129 35.3008 26.0176 35.3008 24.9277C35.3008 23.0527 34.7559 21.5996 33.666 20.5684C32.5762 19.5254 31.041 19.0039 29.0605 19.0039C27.8652 19.0039 26.7754 19.291 25.791 19.8652C24.8066 20.4395 24.0332 21.2363 23.4707 22.2559C22.9199 23.2637 22.6445 24.3887 22.6445 25.6309H21.6953C21.6953 24.2598 22.0117 22.9883 22.6445 21.8164C23.2773 20.6445 24.1562 19.7246 25.2812 19.0566C26.4062 18.3887 27.666 18.0547 29.0605 18.0547C31.334 18.0547 33.1035 18.6582 34.3691 19.8652C35.6348 21.0723 36.2676 22.7598 36.2676 24.9277C36.2676 26.9199 35.1484 29.3047 32.9102 32.082L31.3105 34.0332L23.5762 43.0508H37.6387V44Z" fill="#ED5E42"/>
</svg>
